<?xml version="1.0" standalone="no"?>
<!DOCTYPE svg PUBLIC "-//W3C//DTD SVG 20010904//EN"
 "http://www.w3.org/TR/2001/REC-SVG-20010904/DTD/svg10.dtd">
<svg version="1.0" xmlns="http://www.w3.org/2000/svg"
 width="491.000000pt" height="491.000000pt" viewBox="0 0 491.000000 491.000000"
 preserveAspectRatio="xMidYMid meet">
<metadata>
Created by potrace 1.14, written by Peter Selinger 2001-2017
</metadata>
<g transform="translate(0.000000,491.000000) scale(0.100000,-0.100000)"
fill="#000000" stroke="none">
<path d="M4270 4839 c0 -5 5 -7 10 -4 6 3 10 8 10 11 0 2 -4 4 -10 4 -5 0 -10
-5 -10 -11z"/>
<path d="M2823 4240 c-32 -17 -69 -45 -149 -110 -23 -19 -60 -49 -82 -67 -22
-18 -43 -45 -47 -60 -3 -15 -13 -44 -22 -63 -41 -94 -47 -116 -34 -124 11 -7
-6 -77 -20 -87 -5 -3 -11 -72 -13 -153 -3 -81 -7 -150 -10 -154 -10 -9 -7 -42
4 -42 6 0 8 -15 6 -32 -7 -53 -17 -70 -38 -65 -21 6 -98 -57 -98 -80 0 -8 -4
-11 -10 -8 -17 10 -11 69 8 85 9 8 37 25 62 37 30 15 40 24 29 28 -17 6 -107
-38 -126 -63 -7 -9 -13 -27 -13 -39 0 -13 -5 -23 -10 -23 -20 0 -47 -35 -60
-75 -7 -22 -17 -52 -22 -67 -8 -20 -6 -32 5 -49 15 -21 12 -25 -77 -113 -50
-50 -102 -110 -113 -133 -29 -54 -47 -87 -53 -93 -15 -15 -50 -71 -50 -80 0
-5 -4 -10 -10 -10 -5 0 -10 -7 -10 -16 0 -17 -52 -126 -70 -146 -6 -7 -38 -53
-70 -103 -32 -49 -75 -108 -94 -130 -19 -22 -43 -56 -53 -75 -21 -41 -65 -103
-75 -108 -5 -2 -8 -10 -8 -17 0 -16 -107 -124 -155 -156 -17 -12 -48 -46 -70
-77 -67 -94 -238 -275 -329 -348 -27 -21 -61 -50 -76 -64 -14 -14 -46 -41 -70
-60 -86 -68 -123 -111 -114 -134 5 -12 10 -13 25 -6 35 19 10 -13 -42 -53 -27
-20 -49 -43 -49 -51 0 -14 -96 -78 -172 -116 -80 -38 -148 -87 -148 -105 0 -5
-11 -32 -25 -59 -14 -27 -25 -59 -25 -70 -1 -15 -15 -28 -53 -45 -61 -29 -98
-54 -147 -98 -19 -18 -38 -33 -42 -33 -5 0 -8 -34 -8 -76 l0 -76 81 81 c45 44
101 92 125 106 44 26 45 26 75 8 24 -14 32 -15 38 -5 6 10 10 10 21 -3 10 -12
28 -14 92 -10 43 3 87 1 96 -4 23 -12 92 9 92 27 0 8 5 12 11 10 9 -3 22 -23
52 -82 5 -11 12 -57 15 -103 4 -76 3 -86 -17 -107 -47 -50 -32 -132 32 -180
41 -31 130 -25 182 12 37 26 40 32 39 74 0 34 -7 55 -26 81 -24 31 -27 44 -31
143 -2 60 -9 129 -16 154 -11 43 -57 110 -75 110 -4 0 -14 6 -22 14 -12 12
-12 18 1 43 8 15 15 34 15 41 0 17 20 51 52 87 l28 30 0 -25 c0 -23 7 -28 56
-43 l56 -17 34 35 c25 27 34 46 34 70 0 36 3 40 70 95 23 19 63 54 88 78 26
23 50 42 54 42 5 0 35 26 67 58 96 93 208 194 226 205 44 24 245 219 245 237
0 6 5 10 10 10 6 0 10 7 10 15 0 8 4 15 9 15 5 0 12 9 16 19 8 26 113 129 139
137 12 4 29 16 39 28 10 12 27 32 39 45 16 19 22 21 29 10 16 -25 10 -109 -12
-157 -39 -89 -63 -134 -67 -123 -5 16 -22 14 -22 -3 0 -8 -6 -14 -12 -13 -36
1 -48 -5 -48 -22 0 -11 4 -22 9 -25 5 -4 7 4 3 16 -5 22 -4 22 14 6 19 -17 21
-17 37 -1 16 16 17 16 17 0 0 -10 -7 -20 -15 -23 -10 -4 -13 -13 -10 -25 4
-11 -1 -33 -9 -51 -9 -17 -16 -44 -16 -60 0 -15 -4 -28 -9 -28 -5 0 -12 -12
-15 -26 -15 -56 -123 -194 -153 -194 -7 0 -13 -4 -13 -10 0 -5 -5 -10 -10 -10
-6 0 -29 -13 -52 -30 -22 -17 -47 -30 -55 -30 -7 0 -13 -4 -13 -10 0 -5 -6
-10 -13 -10 -14 0 -53 -41 -73 -76 -6 -10 -20 -23 -32 -29 -25 -11 -30 -35 -8
-35 17 0 66 43 66 57 0 19 36 50 95 83 33 18 62 37 63 41 2 5 8 9 14 9 21 0
148 112 148 130 0 5 6 15 13 22 25 26 66 115 73 156 4 23 10 42 15 42 5 0 9
10 9 23 0 13 7 32 15 43 8 10 15 29 15 42 0 12 5 22 10 22 6 0 10 -4 10 -10 0
-5 7 -10 15 -10 19 0 19 16 0 24 -19 7 -19 33 0 70 8 15 15 34 15 41 0 7 6 15
14 18 10 4 14 -10 15 -65 1 -38 -2 -75 -7 -82 -5 -6 -12 -42 -16 -81 -4 -38
-12 -75 -18 -82 -6 -7 -8 -32 -4 -60 13 -99 11 -121 -34 -293 -5 -19 -15 -59
-22 -88 -6 -28 -16 -52 -20 -52 -4 0 -8 -20 -8 -45 0 -60 -33 -121 -76 -141
-35 -17 -46 -44 -19 -44 8 0 15 5 15 10 0 6 5 10 10 10 6 0 10 -7 10 -15 0 -8
-4 -15 -9 -15 -4 0 -11 -32 -14 -72 -3 -39 -11 -76 -17 -82 -5 -5 -10 -18 -10
-28 0 -10 -14 -49 -31 -86 -17 -37 -35 -76 -39 -87 -25 -64 -40 -113 -40 -128
0 -9 -4 -25 -9 -35 -8 -15 -15 -43 -38 -155 l-5 -28 242 2 242 1 16 29 c10 16
22 29 29 29 18 0 33 33 26 59 -4 17 -2 20 11 15 9 -3 16 -2 16 4 0 6 -5 12
-11 14 -8 3 -6 18 5 51 9 26 16 56 16 67 0 10 4 21 9 25 5 3 12 18 16 34 3 15
17 38 30 50 14 11 25 25 25 31 0 14 -6 13 -26 -7 -15 -16 -16 -15 -9 18 4 19
14 38 21 42 8 4 14 13 14 18 0 6 6 17 13 24 30 35 37 45 37 59 0 8 5 18 11 22
6 3 9 15 6 25 -3 11 -1 19 4 19 5 0 9 6 9 14 0 19 39 86 51 86 4 0 6 7 3 15
-4 10 0 15 11 15 14 0 17 6 12 34 -5 29 -3 33 13 29 10 -3 21 0 24 6 4 7 -1
11 -13 11 -11 0 -23 5 -26 10 -3 6 1 10 9 10 9 0 16 7 16 15 0 24 -25 17 -40
-10 -7 -14 -19 -25 -27 -25 -18 0 -16 10 4 25 21 16 9 35 -19 27 -15 -4 -19
-2 -14 7 5 7 11 10 14 7 3 -4 17 12 32 33 18 28 30 37 39 32 8 -5 11 -17 7
-29 -9 -27 35 -77 52 -60 7 7 12 19 12 28 0 12 -2 13 -9 1 -5 -8 -14 -10 -21
-6 -10 6 -9 10 4 17 9 5 16 18 16 29 0 12 5 19 13 16 6 -2 11 -10 10 -16 -2
-6 2 -11 7 -11 6 0 10 11 10 25 0 18 -4 23 -15 19 -8 -4 -15 -1 -15 5 0 6 5
11 10 11 6 0 10 11 10 24 0 13 7 26 15 30 8 3 15 11 15 18 1 19 37 64 46 56 4
-4 1 -14 -6 -23 -7 -9 -10 -18 -6 -22 13 -13 21 10 19 53 -1 24 3 44 8 44 6 0
7 -9 4 -20 -4 -12 -2 -20 5 -20 7 0 9 16 4 50 -5 41 -4 50 9 50 11 0 17 15 22
50 9 67 25 74 25 11 0 -27 -5 -51 -11 -53 -6 -2 -12 -22 -13 -44 -1 -23 -15
-68 -30 -100 -15 -32 -32 -70 -38 -84 -5 -14 -16 -38 -24 -53 -8 -16 -14 -34
-14 -42 0 -7 -7 -18 -15 -25 -8 -7 -15 -18 -15 -25 0 -15 -73 -127 -107 -163
-13 -14 -23 -31 -23 -38 0 -7 -8 -27 -17 -46 -39 -78 -39 -78 -20 -78 7 0 25
24 40 53 15 28 27 45 27 37 0 -8 -7 -28 -15 -44 -19 -36 -19 -56 0 -56 8 0 15
8 15 18 0 10 3 22 7 26 16 16 29 73 20 87 -7 11 4 37 41 97 28 44 53 90 57
101 3 12 11 21 16 21 5 0 9 6 9 13 0 7 13 39 30 72 16 33 30 67 30 76 0 8 4
19 9 25 20 22 71 208 71 262 0 22 5 32 15 32 8 0 15 -4 15 -8 0 -12 100 -54
128 -54 12 0 22 -4 22 -9 0 -5 10 -9 23 -9 12 0 33 -8 46 -17 23 -16 25 -15
48 11 33 39 26 57 -32 80 -28 11 -68 27 -90 37 -22 9 -63 20 -92 24 -44 6 -52
4 -57 -12 -3 -10 -3 4 -1 32 3 27 10 54 15 59 6 6 10 25 10 43 0 18 5 33 11
33 5 0 9 -8 8 -18 -3 -32 1 -41 16 -36 12 5 15 27 15 112 0 103 1 106 17 82
12 -17 13 -25 5 -28 -21 -7 -13 -18 28 -36 39 -17 66 -22 85 -16 15 6 75 -11
75 -20 0 -4 16 -8 35 -8 39 0 43 5 19 23 -14 10 -15 15 -5 31 10 15 11 15 7 2
-3 -10 -1 -20 4 -23 6 -4 10 -2 10 4 0 5 3 16 6 24 6 16 -45 47 -76 47 -10 0
-31 7 -46 15 -17 8 -56 15 -91 15 -60 0 -63 1 -68 28 -4 15 -10 45 -15 67 -5
22 -12 75 -15 118 -7 68 -5 77 9 77 10 0 14 5 11 10 -4 6 -11 8 -16 5 -5 -4
-9 4 -9 16 0 17 3 19 14 10 11 -10 15 -8 19 6 3 10 5 3 6 -16 1 -40 24 -60 66
-61 17 0 37 -6 43 -12 10 -10 15 -10 22 2 8 12 12 13 19 2 6 -11 16 -9 46 8
31 18 43 20 62 11 19 -9 28 -8 39 4 14 13 14 15 0 15 -19 0 -21 11 -3 29 10
10 7 16 -13 31 -33 25 -218 49 -230 30 -8 -13 -82 -16 -101 -4 -5 3 -9 31 -9
63 0 31 -5 62 -12 69 -6 6 -8 15 -4 19 4 4 10 3 14 -3 50 -78 112 -112 112
-63 0 18 -2 20 -16 8 -13 -10 -19 -8 -40 14 -21 23 -23 30 -13 49 18 34 41 48
61 37 9 -5 26 -9 37 -9 12 0 21 -6 21 -14 0 -8 7 -16 15 -20 12 -4 13 3 8 39
-4 30 -2 45 6 46 85 10 111 4 111 -22 0 -11 4 -27 9 -37 17 -32 43 -113 38
-118 -8 -9 -47 20 -47 34 0 7 -4 11 -9 8 -15 -10 -43 6 -37 20 7 17 -6 25 -23
14 -11 -6 -10 -13 5 -34 11 -14 24 -26 30 -26 6 0 17 -7 24 -15 7 -8 22 -15
34 -15 26 0 45 -39 54 -113 10 -73 -2 -377 -15 -385 -6 -4 -13 -29 -17 -57 -9
-74 -30 -178 -38 -191 -4 -6 -10 -31 -14 -55 -4 -24 -11 -49 -16 -56 -5 -6
-10 -55 -10 -107 0 -71 -3 -96 -13 -96 -8 0 -11 -9 -7 -25 2 -14 0 -25 -6 -25
-5 0 -13 -27 -17 -61 l-7 -60 -32 7 c-17 3 -35 10 -41 14 -5 5 -28 12 -50 16
-22 4 -55 13 -74 21 -43 18 -49 11 -16 -21 21 -21 30 -24 45 -16 24 13 33 13
25 0 -3 -5 2 -10 12 -11 10 0 13 -3 6 -6 -7 -2 -13 -12 -13 -20 0 -12 3 -13
13 -4 8 6 17 8 21 4 4 -4 4 0 0 10 -6 16 -4 16 22 2 16 -8 37 -15 46 -15 9 0
18 -6 20 -12 6 -17 -27 -106 -47 -128 -9 -10 -20 -41 -25 -69 -22 -117 -29
-148 -41 -181 -7 -19 -16 -37 -20 -40 -5 -4 -12 -22 -16 -40 -5 -30 -4 -33 9
-23 29 25 70 114 75 168 5 50 8 55 29 55 15 0 24 6 24 15 0 8 4 15 8 15 10 0
72 120 72 139 0 7 11 26 25 43 17 20 25 42 25 69 0 33 3 39 21 39 13 0 18 -4
13 -12 -14 -23 -4 -221 11 -239 19 -20 19 -76 0 -113 -18 -33 -19 -62 -4 -71
6 -4 7 -14 4 -24 -7 -16 -10 -37 -35 -231 -7 -52 -16 -99 -21 -105 -12 -12
-11 -55 1 -55 6 0 10 -27 10 -60 l0 -60 80 0 c73 0 80 2 80 20 0 26 26 26 33
0 6 -25 64 -29 73 -5 8 19 34 20 34 1 0 -9 15 -13 53 -13 l53 0 -23 126 c-14
69 -31 158 -39 196 -8 39 -17 86 -21 105 -3 19 -9 40 -14 45 -4 6 -11 30 -15
53 -4 23 -10 42 -14 42 -12 0 -38 118 -45 202 -6 68 -4 77 9 72 9 -3 16 -1 16
5 0 6 7 11 15 11 9 0 15 -9 15 -25 0 -14 -6 -25 -14 -25 -8 0 -16 -17 -20 -46
-7 -54 -3 -64 27 -64 20 0 20 0 1 15 -17 13 -17 16 -4 28 9 6 15 23 14 36 -2
40 18 92 31 81 8 -6 23 -7 41 -1 16 5 41 12 57 15 16 4 27 13 27 24 0 15 2 15
10 2 8 -13 13 -11 33 12 14 16 29 28 35 28 5 0 12 7 16 15 3 8 12 12 21 9 8
-4 17 1 21 10 3 9 10 16 15 16 16 0 10 -22 -16 -56 -29 -38 -31 -49 -9 -40 14
6 15 4 4 -9 -9 -11 -15 -12 -20 -5 -5 7 -11 6 -20 -5 -10 -12 -10 -15 4 -15 9
0 16 -4 16 -10 0 -5 -9 -10 -19 -10 -12 0 -21 -9 -25 -26 -8 -32 -29 -54 -51
-54 -9 0 -13 -5 -10 -11 4 -6 -2 -13 -14 -16 -12 -3 -21 -9 -21 -13 0 -11
-105 -80 -123 -80 -20 0 -31 -17 -15 -23 7 -2 26 0 42 4 24 7 46 21 114 74 29
22 79 73 112 114 19 25 40 49 45 55 6 6 33 45 60 86 28 41 52 77 55 80 3 3 14
22 25 43 11 20 23 37 27 37 5 0 8 6 8 14 0 8 6 21 13 28 6 8 19 27 28 43 8 17
21 39 27 50 19 34 39 87 56 150 9 33 26 87 38 120 11 33 22 89 24 125 2 36 10
117 18 180 21 164 30 356 18 364 -6 3 -22 1 -36 -5 -16 -8 -30 -9 -38 -2 -30
21 -382 -19 -413 -48 -26 -25 -61 -6 -89 48 -20 39 -20 62 -1 87 19 25 19 46
0 46 -8 0 -15 -7 -15 -15 0 -8 -4 -15 -10 -15 -5 0 -10 -11 -10 -25 0 -26 -34
-53 -45 -35 -8 13 14 80 26 80 5 0 9 7 9 15 0 16 8 18 53 15 15 -1 27 2 27 7
-1 24 -30 88 -46 100 -9 7 -14 16 -11 20 9 8 -32 53 -49 53 -7 0 -17 7 -22 16
-6 12 -25 16 -75 16 -59 0 -67 3 -73 22 -3 11 -15 31 -26 43 l-20 21 44 -5
c23 -3 45 -9 48 -13 3 -4 21 -10 40 -12 37 -6 101 -29 110 -39 3 -4 16 -10 29
-14 37 -11 121 -86 160 -143 13 -18 26 -30 30 -26 3 4 0 9 -6 11 -7 3 -13 11
-13 20 0 8 -28 43 -62 77 -90 90 -201 140 -359 163 -31 4 -37 10 -52 51 -12
32 -14 48 -6 52 7 5 5 9 -6 13 -9 4 -13 3 -10 -3 3 -6 2 -10 -4 -10 -11 0 -26
78 -17 88 4 3 16 1 26 -6 11 -7 24 -12 29 -12 5 0 28 -12 51 -27 33 -22 38
-29 24 -32 -10 -2 -20 2 -22 8 -4 13 -22 15 -22 3 0 -5 16 -16 35 -25 30 -14
35 -15 35 -2 0 19 17 19 36 0 18 -17 80 -20 90 -4 3 6 15 8 26 5 20 -5 20 -5
0 14 -11 11 -32 22 -46 26 -14 3 -26 10 -26 15 0 5 -4 9 -10 9 -5 0 -10 -7
-10 -15 0 -8 -4 -15 -10 -15 -17 0 -50 39 -50 59 0 11 -4 21 -9 23 -5 2 -13
16 -17 32 l-7 30 28 -26 c15 -14 57 -40 94 -58 36 -17 74 -36 83 -41 10 -5 23
-9 29 -9 6 0 25 -6 42 -14 34 -15 82 -29 107 -31 8 -1 23 -5 33 -9 20 -10 32
-2 22 13 -3 6 -21 11 -40 11 -19 0 -36 4 -40 9 -3 5 -20 13 -37 17 -18 3 -39
10 -48 14 -8 4 -26 12 -40 18 -14 6 -46 20 -72 31 -26 12 -51 21 -56 21 -4 0
-17 8 -28 18 -10 9 -36 28 -56 42 -21 14 -45 40 -55 58 -10 17 -21 32 -24 32
-4 0 -10 21 -14 48 -4 26 -11 52 -15 57 -5 6 -10 23 -12 39 -1 16 -9 31 -16
34 -11 3 -12 -6 -6 -44 4 -27 10 -51 14 -54 4 -3 9 -15 13 -28 4 -19 3 -21 -9
-11 -15 12 -39 52 -50 82 -3 9 -10 17 -15 17 -14 0 -11 30 8 72 15 33 21 38
51 38 60 0 72 25 65 139 -5 87 -3 104 21 175 14 43 26 84 26 91 0 7 7 15 15
19 8 3 15 17 15 32 0 14 6 40 14 57 8 18 16 42 19 54 7 33 -21 169 -46 216
-28 54 -101 126 -135 132 -15 3 -40 12 -55 20 -16 8 -45 15 -65 15 -20 0 -59
7 -86 15 -67 20 -191 18 -233 -5z m-56 -356 c-3 -3 -12 -4 -19 -1 -8 3 -5 6 6
6 11 1 17 -2 13 -5z m61 -31 c5 -18 -16 -16 -35 3 -15 14 -14 16 7 12 13 -1
25 -9 28 -15z m68 -37 c-3 -11 -6 -27 -6 -33 0 -8 -8 -5 -20 7 -11 11 -20 28
-20 39 0 14 6 17 26 13 20 -4 24 -9 20 -26z m-70 -14 c-9 -9 -37 8 -31 18 5 8
11 7 21 -1 8 -6 12 -14 10 -17z m129 -5 c17 -13 17 -14 -2 -19 -13 -3 -24 1
-32 13 -14 23 5 26 34 6z m-216 -14 c0 -10 -4 -27 -9 -38 -7 -16 -9 -13 -9 18
-1 20 4 37 9 37 6 0 10 -8 9 -17z m111 -2 c0 -6 -8 -16 -18 -23 -11 -7 -21
-20 -25 -28 -4 -12 -6 -11 -6 3 -1 10 6 20 14 23 8 4 15 12 15 20 0 8 5 14 10
14 6 0 10 -4 10 -9z m190 -6 c0 -8 -4 -15 -10 -15 -5 0 -11 -19 -11 -42 -1
-26 -4 -34 -6 -19 -6 31 5 91 17 91 6 0 10 -7 10 -15z m-77 -117 c-8 -139 -23
-149 -23 -16 0 100 2 108 27 117 1 1 0 -45 -4 -101z m116 -53 c5 -5 11 -26 15
-46 7 -40 45 -124 52 -116 8 8 -7 77 -17 77 -12 0 -11 187 1 210 8 15 15 17
37 10 16 -5 53 -14 83 -20 92 -20 90 -18 90 -57 0 -19 -6 -49 -14 -66 -38 -86
-48 -180 -24 -233 11 -23 10 -28 -7 -41 -11 -7 -29 -12 -40 -9 -25 6 -46 -10
-63 -49 l-14 -30 -14 25 c-7 14 -13 31 -14 38 0 8 -6 28 -14 45 -22 52 -34 88
-52 161 -18 75 -33 226 -24 248 3 7 6 -21 8 -62 2 -41 7 -79 11 -85z m18 73
c-2 -13 -4 -3 -4 22 0 25 2 35 4 23 2 -13 2 -33 0 -45z m-487 -16 c0 -32 -4
-62 -10 -68 -5 -5 -10 -43 -12 -84 l-3 -75 -5 81 c-5 88 6 204 21 204 5 0 9
-26 9 -58z m401 -44 c1 -22 1 -22 8 2 9 34 18 14 19 -43 0 -30 -4 -47 -11 -46
-34 4 -37 -2 -37 -65 0 -36 4 -67 9 -70 5 -3 12 -27 16 -53 4 -27 11 -53 16
-60 7 -7 6 -14 -1 -18 -7 -5 -5 -12 8 -23 10 -10 27 -31 37 -49 16 -28 20 -30
30 -16 16 21 -3 63 -25 55 -13 -5 -13 -3 -1 11 8 10 11 21 7 24 -4 4 -12 1
-17 -7 -8 -11 -9 -8 -5 12 4 16 1 28 -6 30 -10 4 -14 77 -9 166 2 33 21 27 21
-7 0 -17 4 -32 9 -35 5 -3 12 -22 16 -42 3 -20 11 -44 16 -53 10 -18 49 -119
49 -127 0 -8 -83 -84 -92 -84 -4 0 -8 11 -8 25 0 14 -4 25 -10 25 -5 0 -10 14
-10 30 0 19 -5 30 -14 30 -19 0 -39 61 -43 130 -2 30 -5 71 -6 90 -2 19 1 51
6 70 5 19 8 54 8 78 -1 23 3 42 9 42 5 0 10 -10 11 -22z m-341 -2 c0 -3 -4 -8
-10 -11 -5 -3 -10 -1 -10 4 0 6 5 11 10 11 6 0 10 -2 10 -4z m187 -48 c-3 -8
-6 -5 -6 6 -1 11 2 17 5 13 3 -3 4 -12 1 -19z m-187 2 c0 -5 -4 -10 -10 -10
-5 0 -10 5 -10 10 0 6 5 10 10 10 6 0 10 -4 10 -10z m-133 -77 c-3 -10 -5 -2
-5 17 0 19 2 27 5 18 2 -10 2 -26 0 -35z m187 31 c4 -10 1 -14 -6 -12 -15 5
-23 28 -10 28 5 0 13 -7 16 -16z m206 -36 c1 -29 7 -71 15 -93 8 -22 15 -53
15 -70 -1 -29 -1 -29 -15 -11 -8 11 -15 32 -15 46 0 14 -4 30 -9 36 -6 5 -11
34 -12 64 -2 72 -1 80 11 80 6 0 10 -24 10 -52z m90 7 c0 -19 -3 -35 -7 -35
-5 0 -7 15 -6 32 2 39 2 38 8 38 3 0 5 -16 5 -35z m-350 -14 c0 -17 -4 -32 -9
-35 -12 -8 -23 23 -16 45 10 29 25 22 25 -10z m58 -45 c0 -19 3 -39 7 -45 3
-6 2 -11 -3 -11 -11 0 -24 69 -16 82 9 15 12 9 12 -26z m79 2 c-3 -7 -5 -2 -5
12 0 14 2 19 5 13 2 -7 2 -19 0 -25z m-270 -25 c-3 -10 -5 -2 -5 17 0 19 2 27
5 18 2 -10 2 -26 0 -35z m50 -35 c-2 -13 -4 -5 -4 17 -1 22 1 32 4 23 2 -10 2
-28 0 -40z m73 45 c0 -5 -5 -15 -10 -23 -8 -12 -10 -11 -10 8 0 12 5 22 10 22
6 0 10 -3 10 -7z m177 -53 c10 -22 11 -100 2 -100 -13 0 -26 100 -19 145 2 16
3 15 7 -5 2 -14 7 -32 10 -40z m-279 -50 c2 -57 -1 -70 -13 -70 -12 0 -15 13
-15 58 0 32 5 63 12 70 7 7 12 12 13 12 0 0 1 -32 3 -70z m192 -14 c0 -36 5
-68 10 -71 6 -3 10 -15 10 -26 0 -10 -4 -19 -10 -19 -5 0 -10 -12 -10 -27 0
-18 -3 -24 -10 -17 -6 6 -6 21 2 42 11 28 10 38 -5 63 -13 24 -14 35 -6 51 9
16 7 23 -12 36 -21 15 -22 16 -3 23 33 13 34 11 34 -55z m132 -21 c4 -20 3
-23 -8 -14 -16 13 -19 39 -5 39 5 0 11 -11 13 -25z m-402 1 c0 -7 -6 -19 -14
-25 -19 -16 -31 4 -14 23 17 19 28 20 28 2z m487 -33 c-3 -10 -5 -4 -5 12 0
17 2 24 5 18 2 -7 2 -21 0 -30z m-117 -13 c0 -5 -4 -10 -10 -10 -5 0 -10 5
-10 10 0 6 5 10 10 10 6 0 10 -4 10 -10z m-372 -50 c2 -27 -1 -46 -9 -51 -10
-6 -7 -13 11 -27 21 -17 21 -50 0 -37 -5 3 -11 1 -15 -4 -3 -5 1 -13 9 -18 15
-8 16 -11 16 -39 0 -10 6 -14 14 -11 10 4 13 1 9 -9 -3 -7 -11 -14 -19 -14 -8
0 -14 -7 -14 -15 0 -8 8 -15 19 -15 25 0 35 -57 12 -70 -14 -8 -14 -9 2 -10 9
0 17 -7 17 -15 0 -26 -20 -16 -62 30 l-42 46 3 102 c1 56 7 104 12 105 12 5
12 32 -1 32 -10 0 -14 53 -4 62 3 3 13 5 22 4 12 -2 18 -15 20 -46z m132 40
c0 -5 -4 -10 -10 -10 -5 0 -10 5 -10 10 0 6 5 10 10 10 6 0 10 -4 10 -10z
m-34 -93 c4 -34 6 -78 5 -97 -2 -39 -21 -68 -21 -32 0 12 -4 22 -8 22 -9 0 -9
3 -18 120 -6 85 -6 85 14 67 14 -13 23 -38 28 -80z m151 71 c-3 -8 -6 -5 -6 6
-1 11 2 17 5 13 3 -3 4 -12 1 -19z m233 -29 c0 -11 -4 -17 -10 -14 -5 3 -10
13 -10 21 0 8 5 14 10 14 6 0 10 -9 10 -21z m-682 -13 c8 -18 8 -26 0 -28 -16
-6 -13 -149 3 -159 7 -4 11 -11 7 -14 -8 -8 -48 16 -48 29 0 5 -7 14 -16 20
-23 17 -20 77 6 131 25 51 32 55 48 21z m353 -32 c6 -7 4 -16 -6 -24 -13 -11
-15 -6 -14 36 1 28 4 38 6 24 3 -14 9 -30 14 -36z m251 31 c4 -19 1 -25 -13
-25 -16 0 -17 3 -7 25 6 14 12 25 13 25 2 0 5 -11 7 -25z m324 -37 c7 -12 17
-32 22 -43 6 -11 33 -45 61 -75 28 -30 51 -60 51 -67 0 -7 5 -13 10 -13 6 0
10 -8 10 -18 0 -10 7 -28 16 -40 31 -45 -26 -18 -88 41 -32 30 -48 58 -77 134
-14 35 -51 51 -64 28 -4 -8 -13 -15 -19 -15 -9 0 -9 3 0 12 9 9 9 15 0 25 -9
11 -5 20 17 43 30 31 37 30 61 -12z m-269 -4 c2 -13 1 -15 -4 -4 -3 8 -11 19
-17 23 -7 6 -6 7 4 4 8 -2 16 -12 17 -23z m53 6 c0 -5 -7 -10 -15 -10 -8 0
-15 5 -15 10 0 6 7 10 15 10 8 0 15 -4 15 -10z m-84 -28 c24 -20 42 -86 21
-80 -6 3 -13 15 -15 29 -2 13 -15 34 -29 47 -31 26 -9 30 23 4z m63 -47 c0
-15 -3 -12 -13 10 -7 17 -11 34 -8 39 7 12 20 -21 21 -49z m-199 24 c0 -6 -4
-7 -10 -4 -5 3 -10 11 -10 16 0 6 5 7 10 4 6 -3 10 -11 10 -16z m273 -18 c15
-16 27 -32 27 -35 0 -8 69 -76 77 -76 11 0 53 -43 53 -53 0 -6 7 -19 17 -29
14 -16 14 -18 0 -18 -17 0 -97 71 -97 86 0 6 -18 20 -40 33 -29 16 -40 29 -40
46 0 13 -4 27 -10 30 -14 9 -32 45 -23 45 5 0 20 -13 36 -29z m51 13 c10 -27
7 -36 -9 -20 -8 8 -15 19 -15 25 0 17 17 13 24 -5z m-205 -13 c12 -8 12 -14 4
-33 l-12 -23 0 28 c-1 28 -15 37 -24 15 -3 -8 -6 -6 -6 5 -1 19 16 22 38 8z
m-169 -53 c-1 -18 -3 -20 -9 -8 -5 8 -12 26 -16 40 -7 22 -6 23 9 8 9 -9 16
-27 16 -40z m460 38 c0 -8 4 -16 10 -18 5 -1 12 -25 16 -53 4 -35 3 -46 -5
-35 -5 8 -7 18 -4 23 6 10 -28 77 -39 77 -5 0 -8 5 -8 10 0 6 7 10 15 10 8 0
15 -6 15 -14z m-380 -21 c0 -8 14 -37 31 -65 17 -27 29 -60 27 -72 -3 -20 -6
-18 -22 17 -10 22 -22 42 -25 45 -10 8 -31 59 -31 75 0 8 5 15 10 15 6 0 10
-7 10 -15z m214 -35 c14 -22 26 -45 26 -51 0 -6 7 -9 15 -6 11 5 13 -1 9 -26
-4 -26 -3 -29 6 -14 13 21 32 23 24 3 -3 -8 3 -25 14 -36 17 -19 21 -19 29 -7
7 13 11 14 27 1 17 -12 18 -14 3 -14 -23 0 -21 -9 8 -36 30 -28 31 -38 6 -66
l-20 -20 -33 23 c-18 13 -41 32 -50 41 -10 10 -23 18 -28 18 -6 0 -8 11 -4 26
5 18 3 25 -4 20 -6 -4 -8 1 -5 14 7 25 -22 99 -48 123 -19 18 -26 47 -10 47 4
0 20 -18 35 -40z m-610 -19 c4 -5 -3 -7 -14 -4 -23 6 -26 13 -6 13 8 0 17 -4
20 -9z m-189 -19 c-24 -5 -87 -70 -80 -83 3 -5 1 -18 -5 -29 -7 -13 -7 -20 0
-20 5 0 10 -16 10 -36 0 -20 -4 -33 -10 -29 -5 3 -7 12 -4 20 8 21 -20 47 -35
32 -17 -17 -13 -34 14 -55 25 -20 34 -52 15 -52 -5 0 -9 -3 -9 -7 4 -22 -5
-36 -50 -88 -28 -31 -53 -70 -56 -85 -3 -16 -12 -33 -19 -39 -7 -6 -13 -27
-14 -47 -1 -23 -9 -43 -23 -55 -15 -13 -22 -31 -23 -64 -1 -26 -7 -49 -12 -53
-6 -4 -14 -20 -18 -35 -4 -16 -18 -46 -31 -68 -14 -21 -25 -43 -25 -49 0 -5
-4 -10 -10 -10 -5 0 -10 -8 -10 -17 0 -10 -14 -33 -30 -52 -17 -18 -30 -37
-30 -41 0 -11 -168 -178 -223 -223 -33 -27 -47 -45 -47 -62 0 -14 -4 -25 -10
-25 -5 0 -10 -7 -10 -15 0 -8 -4 -15 -10 -15 -12 0 -13 13 -1 25 5 6 12 31 15
58 6 39 5 47 -8 47 -9 0 -16 -7 -16 -15 0 -8 -7 -15 -15 -15 -18 0 -20 14 -2
27 17 14 58 23 51 12 -3 -5 0 -9 5 -9 6 0 11 9 11 19 0 14 -5 18 -19 14 -16
-4 -19 -1 -14 19 7 26 26 48 42 48 6 0 11 7 11 15 0 33 -41 8 -54 -33 -4 -12
-11 -22 -14 -22 -4 0 -16 -17 -27 -37 -11 -21 -22 -40 -25 -43 -6 -6 -46 -81
-101 -190 -24 -47 -58 -111 -77 -143 -19 -31 -32 -60 -29 -63 3 -3 22 10 42
30 19 20 40 36 44 36 5 0 7 13 5 30 -3 19 -1 30 6 30 7 0 9 -7 6 -16 -4 -11
-1 -14 12 -12 11 2 17 13 17 30 1 37 11 45 17 13 4 -20 -5 -35 -43 -75 -27
-28 -51 -50 -54 -50 -4 0 -20 -13 -37 -30 -34 -35 -42 -37 -35 -11 3 13 1 18
-8 14 -16 -6 -27 -31 -19 -44 3 -5 0 -9 -5 -9 -16 0 -51 -32 -51 -46 0 -7 -4
-14 -9 -16 -5 -1 -18 -18 -29 -37 l-20 -33 -17 33 -18 34 22 -19 c24 -22 28
-9 6 20 -8 10 -14 24 -15 29 0 6 5 3 10 -5 9 -13 11 -13 21 0 9 13 10 12 5 -2
-3 -12 0 -18 9 -18 9 0 15 10 15 24 0 14 5 28 10 31 7 4 7 12 0 25 -6 11 -7
28 -1 42 12 34 3 48 -33 48 -24 0 -36 -7 -49 -29 -9 -16 -17 -38 -17 -49 0
-12 -5 -24 -10 -27 -8 -5 -7 -11 0 -20 9 -11 7 -17 -9 -27 -13 -8 -21 -23 -21
-40 0 -19 -5 -28 -16 -28 -10 0 -14 6 -10 15 3 10 -1 15 -13 15 -10 0 -21 7
-25 15 -8 21 -47 18 -75 -6 -21 -17 -22 -22 -10 -30 10 -6 6 -9 -16 -8 -16 0
-24 3 -17 6 6 2 12 12 12 22 0 9 30 44 66 76 76 69 68 62 159 140 39 33 86 78
105 99 19 22 63 69 98 105 34 36 62 69 62 73 0 12 31 48 84 97 92 86 171 166
183 186 77 124 119 185 156 224 24 25 46 53 50 61 4 12 6 11 6 -2 1 -17 31
-26 31 -10 0 5 9 18 21 31 15 16 18 25 10 35 -8 9 -1 34 28 92 21 43 47 102
57 129 10 28 26 59 36 69 10 11 20 28 24 38 3 10 9 18 12 18 4 0 23 30 42 67
22 42 61 93 104 136 68 68 102 90 121 79 6 -4 1 -8 -10 -10z m497 -4 c-14 -14
-16 -68 -4 -68 7 0 19 -29 38 -97 2 -7 10 -13 19 -13 8 0 15 -5 15 -11 0 -6 8
-23 19 -37 10 -16 16 -34 12 -44 -5 -15 -8 -13 -19 12 -7 16 -19 28 -25 26 -7
-1 -9 -1 -4 1 10 7 9 43 -2 43 -5 0 -12 -8 -14 -17 -4 -14 -5 -12 -6 5 0 12
-5 22 -10 22 -5 0 -11 12 -14 28 -3 15 -12 54 -21 87 -12 46 -12 61 -3 67 19
12 32 9 19 -4z m-412 -28 c0 -5 -4 -10 -9 -10 -6 0 -13 5 -16 10 -3 6 1 10 9
10 9 0 16 -4 16 -10z m504 -6 c10 -27 7 -36 -9 -20 -8 8 -15 19 -15 25 0 17
17 13 24 -5z m-474 -20 c0 -8 -4 -12 -10 -9 -5 3 -10 10 -10 16 0 5 5 9 10 9
6 0 10 -7 10 -16z m-10 -31 c8 -7 -23 -21 -37 -16 -7 3 -13 12 -13 20 0 10 6
12 23 7 12 -3 24 -8 27 -11z m48 -14 c-3 -23 -33 -48 -43 -37 -8 8 24 58 37
58 5 0 8 -10 6 -21z m482 1 c0 -5 -4 -10 -10 -10 -5 0 -10 5 -10 10 0 6 5 10
10 10 6 0 10 -4 10 -10z m-256 -30 c8 0 16 -7 19 -14 4 -11 1 -13 -11 -9 -19
8 -41 33 -41 48 0 6 4 2 10 -7 5 -10 16 -18 23 -18z m-180 -2 c26 -37 20 -55
-9 -28 -25 24 -33 50 -16 50 6 0 17 -10 25 -22z m91 -4 c13 -14 14 -19 3 -25
-22 -14 -28 -10 -28 16 0 29 3 30 25 9z m372 -39 c21 -17 30 -32 27 -43 -5
-15 -4 -15 5 -2 8 10 13 12 19 4 4 -6 17 -14 30 -18 12 -4 22 -12 22 -17 0 -5
7 -9 15 -9 8 0 17 -11 21 -24 4 -19 14 -26 37 -28 27 -3 32 -8 38 -36 7 -34
29 -68 29 -45 0 7 -4 15 -10 18 -5 3 -10 13 -10 21 0 8 5 14 10 14 6 0 10 -7
10 -15 0 -8 7 -15 15 -15 22 0 38 -74 29 -134 -5 -34 -9 -43 -12 -27 -2 13
-16 36 -31 50 -15 14 -48 46 -74 70 -45 43 -79 52 -42 11 11 -12 13 -20 6 -20
-7 0 -9 -5 -5 -11 5 -8 9 -8 14 1 5 8 17 3 39 -19 l32 -31 -61 0 c-33 0 -60
-4 -60 -10 0 -5 -11 -10 -24 -10 -14 0 -28 -5 -31 -10 -9 -15 -26 -1 -24 18 4
22 -10 62 -21 62 -5 0 -11 14 -15 30 -4 17 -11 30 -16 30 -5 0 -9 11 -9 25 0
14 5 25 10 25 6 0 10 -9 10 -20 0 -11 7 -20 15 -20 10 0 15 -10 15 -31 0 -23
4 -30 14 -26 8 3 16 -2 19 -14 3 -10 10 -19 16 -19 14 0 14 37 0 45 -6 4 -7
19 -4 35 4 17 2 31 -6 36 -9 5 -11 1 -7 -14 4 -15 2 -22 -7 -22 -20 0 -30 21
-15 30 15 9 4 50 -19 67 -11 9 -12 12 -3 13 8 0 10 5 5 13 -4 6 -6 22 -4 35 3
24 -2 26 -27 13 -14 -8 -17 -3 -18 29 -2 28 1 36 10 30 6 -6 25 -21 43 -35z
m48 25 c3 -5 1 -10 -4 -10 -6 0 -11 5 -11 10 0 6 2 10 4 10 3 0 8 -4 11 -10z
m-625 -3 c0 -2 -9 -15 -21 -28 -14 -17 -17 -25 -8 -28 7 -2 21 -12 31 -21 18
-17 18 -18 1 -48 -10 -18 -24 -34 -31 -37 -15 -6 -55 32 -47 45 4 6 2 10 -3
10 -5 0 -15 -15 -22 -32 -20 -53 -44 -103 -52 -106 -5 -2 -8 -10 -8 -17 0 -8
-6 -20 -13 -27 -7 -7 -21 -35 -32 -63 -19 -52 -36 -75 -54 -75 -6 0 -11 9 -11
20 0 13 -5 18 -15 14 -8 -4 -15 -14 -15 -23 0 -9 -4 -21 -9 -27 -5 -5 -12 -18
-15 -29 -3 -11 -3 -4 -1 15 6 50 28 130 37 130 3 0 9 -8 11 -17 2 -10 3 -4 1
12 l-4 30 22 -25 c16 -19 20 -20 14 -6 -11 30 3 54 34 61 35 8 46 20 55 65 4
19 12 38 18 41 5 4 10 18 10 33 0 14 3 26 8 26 5 0 9 7 9 15 0 8 -4 15 -10 15
-22 0 -8 18 18 23 15 3 36 14 47 25 17 16 33 25 53 31 1 1 2 -1 2 -2z m210
-42 c0 -7 5 -15 12 -17 7 -3 9 -11 3 -24 -4 -10 -9 -23 -10 -29 -2 -5 -9 -26
-18 -45 l-15 -35 2 57 c1 39 5 58 14 58 34 0 -2 40 -37 41 -23 0 -24 1 -6 8
25 10 55 2 55 -14z m590 -34 c0 -11 -39 -41 -53 -41 -4 0 -3 9 3 20 9 17 8 20
-12 17 -17 -1 -24 4 -26 21 -3 21 -1 22 17 13 26 -14 31 -14 31 4 0 12 4 11
20 -5 11 -11 20 -24 20 -29z m150 39 c0 -5 -4 -10 -10 -10 -5 0 -10 5 -10 10
0 6 5 10 10 10 6 0 10 -4 10 -10z m-784 -36 c-3 -9 -6 -21 -6 -27 0 -16 -20
14 -20 31 0 6 7 12 16 12 11 0 14 -5 10 -16z m772 -44 c0 -10 -1 -11 -5 -2 -2
6 -11 12 -19 12 -17 0 -18 22 -1 39 10 10 13 7 19 -11 3 -13 6 -30 6 -38z m33
30 c5 0 9 -7 9 -15 0 -15 -20 -22 -20 -7 0 4 -2 16 -4 27 -2 11 -1 14 1 8 3
-7 9 -13 14 -13z m-853 -19 c2 -18 -1 -38 -7 -44 -6 -6 -11 -17 -11 -23 0 -16
-60 -77 -68 -69 -3 3 0 11 6 17 7 7 12 29 12 50 0 21 4 38 10 38 5 0 12 16 16
36 9 46 38 43 42 -5z m149 -28 c-3 -10 -5 -4 -5 12 0 17 2 24 5 18 2 -7 2 -21
0 -30z m583 -25 l0 -26 -30 26 c-22 19 -27 29 -19 38 17 20 49 -5 49 -38z m50
0 c0 -50 13 -98 32 -118 14 -15 20 -41 25 -108 3 -48 10 -93 16 -100 6 -8 12
-78 13 -165 2 -113 0 -134 -5 -82 -8 75 -23 139 -46 195 -38 93 -56 181 -54
267 0 48 -2 105 -5 126 -5 34 -4 37 9 23 8 -8 15 -25 15 -38z m-1063 20 c-3
-8 -6 -5 -6 6 -1 11 2 17 5 13 3 -3 4 -12 1 -19z m1119 -35 c4 -21 10 -40 13
-43 3 -3 14 -22 23 -42 10 -21 22 -38 28 -38 5 0 10 -7 10 -15 0 -8 -3 -15 -8
-15 -11 0 -42 38 -42 52 0 6 -8 20 -17 30 -10 11 -16 32 -15 49 1 16 -2 29 -8
29 -5 0 -10 7 -10 15 0 30 19 14 26 -22z m-652 -61 c4 -7 3 -12 -2 -12 -12 0
-22 36 -21 70 1 19 3 16 8 -10 4 -20 11 -41 15 -48z m724 38 c12 -24 17 -50
14 -63 -6 -21 -6 -21 -10 -2 -2 11 -8 22 -12 25 -4 3 -15 22 -23 43 -23 53 4
51 31 -3z m-883 20 c3 -5 1 -10 -4 -10 -6 0 -11 5 -11 10 0 6 2 10 4 10 3 0 8
-4 11 -10z m97 -17 c26 -23 25 -47 -2 -31 -11 7 -18 18 -16 25 3 6 0 14 -7 17
-7 2 -8 5 -3 5 5 1 18 -6 28 -16z m-447 -13 c3 -5 1 -10 -4 -10 -6 0 -11 5
-11 10 0 6 2 10 4 10 3 0 8 -4 11 -10z m405 -21 c0 -5 -4 -9 -10 -9 -5 0 -10
-10 -10 -22 1 -22 1 -22 15 -4 8 10 16 24 18 30 2 6 8 8 12 4 4 -4 2 -14 -5
-23 -7 -8 -10 -15 -7 -15 4 0 3 -10 -2 -22 -6 -17 -3 -27 13 -41 20 -17 20
-18 1 -9 -24 12 -65 -16 -65 -43 0 -12 -8 -16 -32 -13 -25 2 -32 7 -30 21 3
20 -13 23 -22 5 -3 -7 -3 0 0 17 8 43 13 44 44 7 l28 -34 7 33 c5 24 3 34 -8
40 -13 8 -12 15 7 53 12 25 26 41 34 39 6 -3 12 -9 12 -14z m-424 -37 c-4 -3
-12 0 -19 7 -9 9 -9 14 3 21 11 7 16 5 18 -6 2 -9 1 -18 -2 -22z m-26 -12 c0
-5 -4 -10 -10 -10 -5 0 -10 5 -10 10 0 6 5 10 10 10 6 0 10 -4 10 -10z m305
-20 c-4 -19 -3 -30 4 -30 6 0 11 -4 11 -10 0 -5 -7 -10 -15 -10 -11 0 -15 11
-15 40 0 22 5 40 11 40 7 0 8 -11 4 -30z m498 11 c3 -14 1 -18 -9 -14 -8 3
-14 11 -14 19 0 21 17 17 23 -5z m627 -11 c0 -5 -7 -7 -15 -4 -9 4 -15 0 -15
-8 0 -8 -13 -27 -30 -43 -16 -16 -30 -34 -30 -39 0 -14 -48 -66 -61 -66 -17 0
-22 30 -8 48 26 32 39 62 39 87 0 23 2 24 21 13 17 -11 22 -10 34 6 7 10 18
15 24 12 5 -4 12 -2 16 4 7 11 25 4 25 -10z m-865 -11 c0 -8 7 -22 15 -31 31
-35 40 -47 40 -58 0 -5 5 -10 10 -10 6 0 10 -6 10 -13 0 -7 12 -24 26 -36 22
-19 24 -25 13 -33 -8 -5 -10 -11 -4 -14 34 -15 39 -22 23 -37 -9 -10 -13 -28
-10 -53 2 -22 4 -47 5 -56 1 -20 27 -25 27 -5 0 8 3 7 9 -3 12 -18 5 -31 -13
-24 -7 3 -16 -2 -20 -11 -4 -12 0 -19 14 -22 11 -3 20 -11 20 -19 0 -9 -6 -11
-17 -7 -15 6 -16 4 -6 -9 17 -20 21 -230 5 -236 -15 -5 -16 -47 -1 -73 9 -18
7 -19 -15 -13 -22 5 -26 3 -26 -14 0 -22 -31 -82 -41 -82 -12 0 -15 92 -6 150
4 30 10 71 12 90 7 66 15 103 26 116 9 11 8 14 -5 14 -10 0 -16 -9 -16 -24 0
-14 -11 -37 -25 -52 -14 -15 -25 -33 -25 -40 0 -8 -7 -14 -15 -14 -8 0 -15 -9
-15 -20 0 -11 -7 -20 -15 -20 -17 0 -18 -2 -9 -24 3 -9 12 -16 20 -16 18 0 18
-18 -1 -54 -15 -29 -11 -52 4 -27 5 8 14 10 21 6 10 -6 9 -10 -4 -17 -9 -5
-16 -18 -16 -28 0 -26 -15 -25 -34 2 -16 22 -16 22 -16 1 0 -11 -7 -26 -15
-33 -11 -9 -15 -9 -15 -1 0 6 -10 10 -22 8 -13 -2 -17 -2 -10 0 6 3 12 16 12
30 0 18 4 24 14 20 8 -3 17 1 20 9 3 9 1 12 -4 9 -6 -3 -10 -1 -10 4 0 6 9 11
21 11 18 0 20 4 15 28 -3 15 -3 21 0 15 8 -18 24 -16 24 2 0 7 -8 18 -17 23
-14 8 -15 15 -6 43 5 19 15 33 22 31 21 -4 60 51 61 86 0 19 -5 32 -12 33 -7
0 -4 4 6 8 12 5 20 19 22 37 1 16 0 21 -3 12 -2 -10 -11 -18 -19 -18 -16 0
-18 9 -4 30 7 11 5 17 -8 21 -16 6 -16 7 1 14 12 5 23 1 32 -11 17 -22 16 -24
21 41 3 46 -8 95 -28 120 -5 6 -17 20 -27 33 l-19 23 -13 -31 c-8 -16 -16 -30
-19 -30 -6 0 -9 -27 -11 -78 -1 -13 -6 -21 -13 -19 -15 5 -20 111 -5 138 6 12
7 19 1 15 -23 -14 -17 20 7 36 l25 17 -34 15 c-31 13 -33 15 -16 22 12 5 21 3
24 -4 5 -15 22 -16 22 -2 0 6 -8 14 -17 17 -32 12 -44 43 -18 43 8 0 15 -4 15
-10 0 -22 15 -8 16 15 1 16 -3 25 -13 25 -8 0 -12 4 -8 10 3 5 12 7 20 3 10
-3 15 1 15 12 0 9 6 15 13 13 6 -3 12 -11 12 -19z m192 -1 c-3 -8 -6 -5 -6 6
-1 11 2 17 5 13 3 -3 4 -12 1 -19z m-510 -35 c-3 -10 -5 -4 -5 12 0 17 2 24 5
18 2 -7 2 -21 0 -30z m395 4 c26 -25 48 -87 30 -87 -12 0 -46 55 -54 88 -8 27
-7 27 24 -1z m867 4 c8 -15 7 -20 -5 -25 -20 -8 -30 -1 -37 24 -7 27 28 28 42
1z m-258 -26 c4 -6 1 -21 -6 -35 -14 -24 -14 -23 -14 25 0 28 3 43 6 35 3 -8
9 -20 14 -25z m-421 -27 c0 -19 -28 -6 -38 17 -18 38 -15 41 13 15 14 -13 25
-27 25 -32z m620 42 c10 -7 11 -10 2 -10 -8 0 -10 -8 -6 -24 4 -17 -1 -31 -21
-50 -14 -14 -32 -26 -40 -26 -8 0 -15 -4 -15 -9 0 -11 -50 -44 -57 -38 -2 3 7
23 21 46 14 22 26 44 26 48 0 8 61 73 69 73 4 0 13 -5 21 -10z m-994 -47 c-11
-11 -19 6 -11 24 8 17 8 17 12 0 3 -10 2 -21 -1 -24z m484 21 c0 -8 -5 -12
-10 -9 -6 4 -8 11 -5 16 9 14 15 11 15 -7z m612 -16 c8 -21 -2 -38 -22 -38
-10 0 -27 -15 -38 -33 -48 -82 -89 -104 -79 -43 6 36 44 80 93 108 36 20 41
21 46 6z m-562 -23 c0 -8 -2 -15 -4 -15 -2 0 -6 7 -10 15 -3 8 -1 15 4 15 6 0
10 -7 10 -15z m-606 -22 c-4 -16 -13 -37 -20 -48 -13 -18 -14 -15 -14 28 0 40
3 47 20 47 17 0 19 -4 14 -27z m-107 -25 c-3 -7 -5 -2 -5 12 0 14 2 19 5 13 2
-7 2 -19 0 -25z m-277 -8 c0 -5 -4 -10 -10 -10 -5 0 -10 -8 -10 -17 0 -15 -2
-15 -9 -4 -6 9 -5 19 2 27 14 16 27 18 27 4z m829 -16 c3 -16 1 -17 -13 -5
-19 16 -21 34 -3 29 6 -3 14 -13 16 -24z m455 -29 c24 -42 32 -45 56 -19 21
22 58 35 47 17 -3 -5 -2 -25 2 -46 l6 -39 25 22 25 22 3 -35 c2 -25 10 -37 28
-45 13 -7 24 -20 24 -30 0 -10 6 -24 12 -30 10 -10 10 -15 -1 -21 -17 -11 -41
-3 -41 12 0 23 -35 87 -48 87 -9 0 -11 -7 -6 -22 4 -13 10 -25 15 -28 4 -3 11
-18 14 -33 5 -20 3 -27 -7 -27 -8 0 -29 -7 -47 -16 -20 -10 -44 -14 -62 -10
-21 4 -31 1 -35 -9 -4 -8 -13 -15 -21 -15 -13 0 -13 3 -3 15 12 14 11 24 -5
151 -4 34 -3 54 5 59 7 4 7 11 2 18 -5 7 -12 20 -15 30 -9 24 13 18 27 -8z
m-1373 -23 c-9 -3 -9 -7 0 -18 9 -11 7 -14 -10 -14 -21 0 -21 1 -5 33 12 21
19 27 22 18 3 -8 0 -17 -7 -19z m881 -7 c3 -14 1 -25 -3 -25 -5 0 -9 11 -9 25
0 14 2 25 4 25 2 0 6 -11 8 -25z m-502 5 c0 -5 -4 -10 -10 -10 -5 0 -10 5 -10
10 0 6 5 10 10 10 6 0 10 -4 10 -10z m425 -40 c3 -5 1 -10 -4 -10 -6 0 -11 5
-11 10 0 6 2 10 4 10 3 0 8 -4 11 -10z m-842 -30 c-3 -11 -9 -17 -15 -14 -5 3
-4 12 3 20 16 19 18 18 12 -6z m1737 -123 c0 -4 9 -17 20 -29 14 -16 17 -25 9
-34 -8 -9 -2 -20 20 -40 25 -22 31 -35 31 -68 l-1 -41 -28 33 c-33 39 -91 145
-91 167 0 8 -3 15 -8 15 -10 0 -42 92 -42 121 0 18 11 7 45 -46 24 -38 45 -74
45 -78z m-1696 98 c3 -8 1 -15 -4 -15 -6 0 -10 7 -10 15 0 8 2 15 4 15 2 0 6
-7 10 -15z m2109 -12 c-13 -2 -23 -8 -23 -12 0 -4 -28 -15 -62 -26 -35 -10
-67 -21 -73 -25 -5 -4 -27 -11 -49 -14 -21 -4 -46 -11 -55 -16 -9 -4 -29 -14
-46 -21 -16 -7 -33 -15 -36 -17 -11 -5 -51 70 -42 79 4 4 31 13 58 20 28 6 59
15 70 20 11 5 47 10 80 12 90 5 203 5 178 0z m96 -55 c-1 -78 -6 -98 -24 -92
-8 3 -20 -4 -27 -15 -7 -12 -17 -21 -23 -21 -6 0 -26 -11 -46 -24 -19 -13 -56
-27 -82 -31 -26 -4 -47 -10 -47 -14 0 -4 -29 -15 -65 -25 -39 -12 -66 -25 -68
-35 -3 -9 -5 2 -6 25 -1 41 -20 94 -33 94 -5 0 -8 8 -8 18 0 18 36 37 115 62
22 7 47 16 55 20 9 4 31 11 50 15 19 4 41 11 50 15 46 23 145 66 158 69 1 1 2
-27 1 -61z m-2265 43 c3 -5 -1 -11 -9 -14 -9 -4 -12 -1 -8 9 6 16 10 17 17 5z
m923 -23 c-3 -8 -6 -5 -6 6 -1 11 2 17 5 13 3 -3 4 -12 1 -19z m-260 -14 c13
-12 13 -17 2 -32 -7 -9 -14 -19 -15 -20 -1 -2 -18 -7 -38 -12 -28 -6 -39 -4
-55 12 -30 27 -26 57 9 71 22 9 81 -2 97 -19z m-712 -43 c-14 -13 -16 -13 -11
-1 3 8 9 24 13 35 7 19 7 19 11 1 2 -10 -4 -26 -13 -35z m1215 28 c0 -11 -4
-18 -10 -14 -5 3 -7 12 -3 20 7 21 13 19 13 -6z m-53 -31 c-3 -8 -6 -5 -6 6
-1 11 2 17 5 13 3 -3 4 -12 1 -19z m592 -51 c12 -24 21 -49 21 -55 0 -7 4 -12
10 -12 5 0 12 -11 16 -25 3 -14 10 -25 15 -25 5 0 9 -5 9 -11 0 -7 8 -18 18
-25 15 -12 15 -15 2 -24 -8 -5 -33 -15 -55 -20 -98 -26 -125 -35 -125 -43 0
-5 -12 -8 -27 -6 -27 2 -39 -1 -89 -21 -12 -5 -43 -12 -70 -16 -27 -4 -53 -12
-57 -18 -6 -7 -7 -4 -3 7 3 10 6 23 6 28 0 5 8 10 18 10 16 1 16 2 0 6 -22 5
-24 23 -3 23 8 0 15 6 15 13 0 7 6 25 13 40 10 23 18 27 55 27 23 0 42 4 42
10 0 5 -19 9 -42 9 -63 -2 -66 0 -33 17 16 8 58 18 93 21 34 3 65 10 68 14 3
5 22 9 42 9 44 0 72 15 57 29 -6 6 -26 6 -55 0 -25 -6 -56 -11 -70 -13 -14 -2
-45 -9 -70 -16 -76 -20 -93 -18 -97 11 -4 35 8 43 100 68 57 15 83 18 97 11
26 -14 40 -12 40 5 0 33 38 15 59 -28z m-1776 16 c-7 -2 -13 -12 -13 -20 0 -9
-3 -14 -6 -10 -10 10 4 37 18 36 10 0 10 -2 1 -6z m967 -3 c0 -5 -4 -10 -10
-10 -5 0 -10 5 -10 10 0 6 5 10 10 10 6 0 10 -4 10 -10z m1351 -170 c-6 -19
-12 -80 -14 -135 -2 -55 -9 -109 -14 -120 -18 -32 -43 -125 -43 -156 0 -15 -4
-31 -10 -34 -5 -3 -10 -16 -10 -28 0 -12 -7 -35 -15 -51 -8 -15 -15 -35 -15
-42 0 -8 -3 -14 -7 -14 -5 0 -19 -16 -31 -34 -14 -21 -35 -37 -53 -41 -16 -4
-31 -11 -34 -16 -4 -5 -17 -9 -30 -9 -12 0 -56 -13 -96 -30 -41 -16 -80 -30
-86 -30 -7 0 -13 -4 -13 -8 0 -4 -29 -16 -65 -27 -37 -10 -68 -22 -71 -27 -3
-4 -13 -8 -22 -8 -9 0 -30 -7 -46 -15 -44 -23 -56 -19 -56 18 0 17 -7 45 -15
61 -14 27 -14 30 4 48 11 10 28 18 37 18 9 0 25 10 35 22 11 12 19 16 19 8 0
-9 9 -11 32 -6 39 8 47 15 29 25 -9 6 -5 9 13 9 14 0 26 -4 26 -9 0 -13 97 26
111 44 11 15 80 14 74 0 -3 -7 -8 -20 -11 -28 -4 -11 0 -15 15 -15 20 0 25 -9
22 -37 -1 -7 5 -13 14 -13 10 0 15 9 15 28 0 15 3 37 6 48 4 16 0 23 -15 27
-12 3 -21 11 -21 17 0 7 8 10 20 7 13 -3 20 0 20 9 0 8 3 14 8 14 4 0 22 14
41 30 18 17 36 28 41 25 5 -3 18 5 30 17 18 19 22 20 30 8 5 -8 10 -12 11 -7
1 4 3 12 4 17 1 6 3 14 4 20 0 5 8 7 16 4 19 -8 19 1 -1 32 -14 21 -14 24 -1
19 10 -4 19 4 28 24 8 17 17 31 21 31 5 0 8 9 8 19 0 11 5 23 10 26 12 7 14
85 3 85 -5 -1 -24 -14 -43 -31 -28 -24 -32 -31 -20 -39 8 -5 11 -12 7 -17 -5
-4 -12 -2 -16 5 -9 14 -56 7 -80 -12 -7 -5 -25 -12 -40 -13 -25 -3 -71 -22
-81 -34 -3 -3 -20 -13 -37 -22 l-33 -15 0 29 c0 16 -4 29 -10 29 -5 0 -10 -11
-10 -24 0 -28 -26 -59 -41 -50 -6 3 -16 -2 -23 -12 -7 -10 -22 -18 -32 -19
-11 -2 -57 -16 -104 -33 -47 -17 -96 -33 -110 -35 -14 -3 -38 -10 -53 -16 -16
-6 -33 -11 -38 -11 -5 0 -9 31 -9 69 0 39 -4 72 -10 76 -5 3 -12 32 -16 65 -4
33 -11 60 -15 60 -5 0 -9 5 -9 10 0 6 7 10 15 10 11 0 15 -11 15 -39 0 -25 5
-41 15 -45 9 -3 12 -12 8 -22 -5 -14 -1 -16 28 -11 54 9 94 19 99 27 3 3 26
17 53 29 37 18 51 20 62 11 11 -9 18 -7 33 7 10 10 23 19 28 20 5 1 17 5 27 8
12 5 17 2 17 -9 0 -9 -7 -16 -15 -16 -20 0 -19 -30 2 -45 15 -11 15 -15 4 -29
-11 -14 -11 -16 3 -16 9 0 16 6 16 14 0 8 6 17 13 19 8 4 7 6 -3 6 -12 1 -15
10 -12 38 6 49 24 68 51 51 15 -9 17 -16 10 -30 -7 -13 -6 -23 6 -34 8 -8 15
-20 15 -25 0 -5 9 -9 19 -9 15 0 19 7 19 30 -1 25 -4 28 -19 20 -28 -15 -32
-12 -26 20 4 16 2 32 -3 35 -14 9 -2 25 18 25 20 1 52 27 68 55 12 21 44 33
44 16 0 -5 -10 -12 -22 -14 -20 -4 -19 -4 5 -6 22 -1 27 3 27 23 0 34 28 42
36 11 6 -24 34 -36 34 -15 0 6 7 10 16 10 16 0 43 26 44 42 0 4 -7 5 -15 2 -8
-4 -15 -12 -15 -20 0 -8 -4 -14 -10 -14 -5 0 -10 3 -10 8 1 12 27 42 37 42 6
0 16 7 23 15 14 17 40 20 40 5 0 -5 -7 -10 -15 -10 -8 0 -15 -4 -15 -10 0 -12
20 -13 39 -1 8 5 11 16 7 29 -4 11 -2 23 4 27 6 3 10 -4 11 -17 1 -35 27 41
30 89 4 61 14 63 17 3 2 -30 -1 -71 -7 -90z m-2320 110 c23 -13 24 -38 4 -67
-13 -19 -18 -20 -45 -10 -17 6 -28 17 -26 23 3 7 -2 15 -11 18 -14 6 -14 9 2
26 20 22 46 25 76 10z m805 -17 c-10 -10 -19 5 -10 18 6 11 8 11 12 0 2 -7 1
-15 -2 -18z m651 -20 c-3 -10 -5 -2 -5 17 0 19 2 27 5 18 2 -10 2 -26 0 -35z
m-1260 11 c-3 -3 -12 -4 -19 -1 -8 3 -5 6 6 6 11 1 17 -2 13 -5z m1973 -34 c0
-5 -4 -10 -10 -10 -5 0 -10 5 -10 10 0 6 5 10 10 10 6 0 10 -4 10 -10z m-713
-67 c-3 -10 -5 -2 -5 17 0 19 2 27 5 18 2 -10 2 -26 0 -35z m-1593 15 c-3 -4
-9 -8 -15 -8 -5 0 -9 4 -9 8 0 5 7 9 15 9 8 0 12 -4 9 -9z m-14 -27 c0 -5 -7
-14 -15 -21 -12 -10 -15 -10 -15 2 0 8 3 18 7 21 9 10 23 9 23 -2z m2080 -1
c0 -5 -5 -10 -11 -10 -6 0 -9 -6 -7 -12 5 -14 -15 -38 -31 -38 -10 0 -6 41 6
63 6 11 43 9 43 -3z m-2130 -30 c0 -5 -7 -10 -16 -10 -8 0 -12 5 -9 10 3 6 10
10 16 10 5 0 9 -4 9 -10z m1170 -16 c0 -8 -4 -12 -10 -9 -5 3 -10 10 -10 16 0
5 5 9 10 9 6 0 10 -7 10 -16z m780 -24 c0 -5 -7 -7 -15 -4 -8 4 -15 8 -15 10
0 2 7 4 15 4 8 0 15 -4 15 -10z m-565 -10 c4 -6 11 -8 16 -5 5 4 21 -7 36 -22
14 -15 23 -22 19 -15 -4 6 -2 12 3 12 6 0 11 -4 11 -10 0 -5 7 -10 16 -10 8 0
12 -5 9 -10 -9 -15 -44 -2 -71 27 -12 13 -24 20 -26 14 -1 -5 -15 -7 -30 -4
-22 4 -25 8 -15 19 15 16 24 17 32 4z m505 0 c0 -5 -4 -10 -10 -10 -5 0 -10 5
-10 10 0 6 5 10 10 10 6 0 10 -4 10 -10z m-480 -55 c0 -17 -2 -18 -24 -9 -23
9 -20 24 4 24 11 0 20 -7 20 -15z m-133 -47 c-2 -13 -4 -5 -4 17 -1 22 1 32 4
23 2 -10 2 -28 0 -40z m-1146 -1 c-16 -16 -25 -1 -10 16 8 8 16 11 18 5 2 -5
-2 -15 -8 -21z m875 6 c-10 -10 -19 5 -10 18 6 11 8 11 12 0 2 -7 1 -15 -2
-18z m114 -22 c-4 -15 -13 -38 -19 -49 -6 -11 -11 -41 -11 -65 0 -28 -5 -47
-13 -50 -20 -8 -9 100 14 141 10 18 19 40 19 48 0 8 4 13 9 9 6 -3 6 -17 1
-34z m107 -38 c-2 -16 -4 -5 -4 22 0 28 2 40 4 28 2 -13 2 -35 0 -50z m-237
31 c0 -8 -7 -14 -15 -14 -8 0 -15 9 -15 20 0 13 5 18 15 14 8 -4 15 -12 15
-20z m-1120 12 c0 -2 -7 -7 -16 -10 -8 -3 -12 -2 -9 4 6 10 25 14 25 6z m-65
-28 c6 -4 2 -8 -7 -8 -10 0 -18 7 -18 17 0 9 3 12 8 7 4 -5 12 -12 17 -16z
m1115 -11 c0 -5 -4 -5 -10 -2 -5 3 -10 1 -10 -6 0 -7 -3 -10 -6 -6 -3 3 -3 15
1 28 6 17 9 19 16 8 5 -8 9 -18 9 -22z m105 -9 c-9 -41 -24 -59 -18 -21 6 39
11 53 18 53 4 0 4 -15 0 -32z m-955 3 c0 -5 -7 -11 -14 -14 -10 -4 -13 -1 -9
9 6 15 23 19 23 5z m910 -5 c0 -8 -4 -18 -10 -21 -5 -3 -10 3 -10 14 0 12 5
21 10 21 6 0 10 -6 10 -14z m155 4 c3 -5 1 -10 -4 -10 -6 0 -11 5 -11 10 0 6
2 10 4 10 3 0 8 -4 11 -10z m-1435 -25 c0 -8 -4 -15 -10 -15 -5 0 -10 7 -10
15 0 8 5 15 10 15 6 0 10 -7 10 -15z m2080 -6 c0 -5 -4 -9 -10 -9 -5 0 -10 7
-10 16 0 8 5 12 10 9 6 -3 10 -10 10 -16z m-2036 -4 c3 -8 1 -15 -4 -15 -6 0
-10 7 -10 15 0 8 2 15 4 15 2 0 6 -7 10 -15z m46 -1 c0 -8 -5 -12 -10 -9 -6 4
-8 11 -5 16 9 14 15 11 15 -7z m1120 0 c0 -8 -5 -12 -10 -9 -6 4 -8 11 -5 16
9 14 15 11 15 -7z m740 -10 c0 -8 -4 -12 -10 -9 -5 3 -10 10 -10 16 0 5 5 9
10 9 6 0 10 -7 10 -16z m757 8 c8 -5 3 -11 -13 -19 -21 -10 -24 -9 -24 8 0 20
16 24 37 11z m-1447 -17 c0 -8 -4 -15 -10 -15 -5 0 -10 7 -10 15 0 8 5 15 10
15 6 0 10 -7 10 -15z m-95 -25 c3 -5 1 -10 -4 -10 -6 0 -11 5 -11 10 0 6 2 10
4 10 3 0 8 -4 11 -10z m129 -5 c-4 -8 -8 -15 -10 -15 -2 0 -4 7 -4 15 0 8 4
15 10 15 5 0 7 -7 4 -15z m666 -27 c0 -38 -5 -34 -13 10 -4 21 -3 31 3 27 6
-3 10 -20 10 -37z m-1160 23 c0 -6 -4 -13 -10 -16 -5 -3 -10 1 -10 9 0 9 5 16
10 16 6 0 10 -4 10 -9z m433 -21 c-6 -22 -21 -35 -30 -26 -5 5 24 46 33 46 1
0 0 -9 -3 -20z m186 -40 c-10 -43 -29 -80 -41 -80 -5 0 -8 -12 -8 -26 0 -14
-14 -56 -32 -93 -18 -36 -33 -68 -33 -71 -2 -13 -38 -81 -46 -85 -4 -3 -10 -1
-14 5 -3 5 -1 10 4 10 6 0 11 8 11 18 0 10 6 24 12 30 10 10 10 15 -2 23 -12
9 -12 10 3 5 16 -5 18 -2 12 26 -6 26 -5 30 9 25 9 -4 16 -2 16 4 0 5 -7 12
-15 15 -22 9 -18 26 4 19 12 -4 21 0 25 11 5 12 2 15 -9 10 -13 -5 -15 0 -9
32 4 20 13 41 20 45 8 4 14 17 14 27 0 22 16 27 23 8 3 -8 6 -6 6 5 1 9 5 17
10 17 5 0 13 10 17 23 5 17 20 36 30 37 1 0 -2 -18 -7 -40z m-642 -12 c-3 -8
-6 -5 -6 6 -1 11 2 17 5 13 3 -3 4 -12 1 -19z m1136 2 c-3 -11 -7 -20 -9 -20
-2 0 -4 9 -4 20 0 11 4 20 9 20 5 0 7 -9 4 -20z m-710 -1 c-6 -6 -9 -18 -6
-25 3 -8 0 -14 -6 -14 -6 0 -11 6 -11 13 0 13 19 37 29 37 3 0 0 -5 -6 -11z
m1414 -14 c-4 -8 -11 -15 -17 -15 -6 0 -6 7 2 20 14 22 24 19 15 -5z m-638
-47 c-1 -61 -1 -62 -11 -25 -9 34 -5 87 7 87 3 0 5 -28 4 -62z m-379 36 c0
-14 3 -14 15 -4 12 10 15 10 15 -3 0 -19 -42 -35 -48 -18 -2 6 -10 11 -18 11
-15 0 -19 12 -7 23 13 13 43 7 43 -9z m-1887 -24 c-3 -11 -13 -20 -22 -19 -9
0 -11 3 -4 5 7 3 9 12 6 20 -3 8 1 14 10 14 10 0 13 -7 10 -20z m1971 14 c22
-9 20 -24 -3 -24 -11 0 -21 -5 -23 -12 -2 -6 -9 -8 -16 -4 -9 5 -9 12 1 26 13
22 17 23 41 14z m44 -36 c19 -19 14 -28 -12 -28 -29 0 -44 19 -25 31 18 12 23
11 37 -3z m53 2 c5 0 9 -4 9 -10 0 -16 -26 -12 -41 7 -12 15 -12 16 4 10 10
-4 23 -7 28 -7z m90 -111 c2 -74 0 -122 -7 -130 -6 -8 -13 -21 -16 -29 -3 -8
-3 37 -1 100 4 113 11 185 18 179 2 -2 5 -56 6 -120z m-2193 71 c-1 -16 -6
-30 -10 -30 -4 0 -8 14 -8 30 0 17 5 30 10 30 6 0 9 -13 8 -30z m2362 -20 c0
-5 -7 -10 -15 -10 -8 0 -15 5 -15 10 0 6 7 10 15 10 8 0 15 -4 15 -10z m30
-29 c0 -6 -4 -13 -10 -16 -5 -3 -10 1 -10 9 0 9 5 16 10 16 6 0 10 -4 10 -9z
m425 -10 c3 -5 1 -12 -5 -16 -5 -3 -10 1 -10 9 0 18 6 21 15 7z m-448 -116 c9
-44 20 -84 25 -89 10 -12 11 -56 1 -56 -12 0 -43 114 -43 154 0 19 -4 38 -10
41 -12 7 -13 48 -2 59 4 4 8 0 10 -11 1 -10 10 -54 19 -98z m-2087 76 c0 -5
-12 -16 -27 -26 l-28 -17 25 25 c28 29 30 30 30 18z m1960 5 c0 -3 -4 -8 -10
-11 -5 -3 -10 -1 -10 4 0 6 5 11 10 11 6 0 10 -2 10 -4z m40 -22 c0 -14 -4
-23 -9 -20 -5 3 -7 15 -4 26 7 28 13 25 13 -6z m-2440 -12 c0 -4 14 -13 30
-19 18 -7 30 -18 30 -29 0 -16 -3 -15 -23 4 -13 12 -28 22 -33 22 -6 0 -19 7
-30 15 -19 14 -18 14 4 15 12 0 22 -4 22 -8z m2400 -13 c0 -5 -4 -9 -10 -9 -5
0 -10 7 -10 16 0 8 5 12 10 9 6 -3 10 -10 10 -16z m77 -14 c2 -14 -1 -25 -7
-25 -5 0 -10 14 -10 32 0 35 12 30 17 -7z m-1055 3 c-7 -7 -12 -8 -12 -2 0 14
12 26 19 19 2 -3 -1 -11 -7 -17z m1662 -18 c-18 -34 -30 -44 -39 -31 -4 8 38
61 50 61 2 0 -3 -13 -11 -30z m-3100 -11 c31 -15 46 -31 59 -62 9 -23 17 -48
17 -55 0 -21 -16 -13 -28 14 -7 14 -16 23 -21 20 -11 -7 -2 -56 10 -56 5 0 9
-7 9 -16 0 -23 -19 -7 -34 30 -15 35 -101 100 -123 92 -19 -8 -16 5 9 31 27
28 49 29 102 2z m2500 -23 c-3 -7 1 -20 8 -27 7 -8 13 -18 13 -24 1 -25 18
-90 25 -95 4 -3 10 -43 14 -90 8 -100 28 -215 39 -226 4 -4 7 -14 7 -23 0 -9
7 -29 15 -45 8 -15 15 -39 15 -51 0 -13 4 -25 10 -27 5 -1 14 -31 20 -65 5
-35 14 -90 20 -124 5 -33 14 -69 20 -79 12 -23 13 -100 1 -100 -10 0 -21 35
-21 71 0 15 -15 58 -34 95 -34 68 -76 192 -76 224 0 9 -4 20 -10 26 -5 5 -16
38 -24 73 -8 35 -19 67 -24 70 -4 3 -9 15 -9 26 0 11 -4 45 -8 76 -6 44 -4 58
8 71 11 10 16 33 16 64 0 45 -4 65 -25 119 -4 11 -6 24 -5 29 1 5 -3 12 -10
16 -6 4 -8 13 -5 19 10 16 26 14 20 -3z m-744 -56 c0 -13 -26 -19 -41 -9 -12
8 -12 10 0 18 15 10 41 4 41 -9z m-1816 -17 c25 -26 76 -98 76 -108 0 -3 -7
-5 -15 -5 -8 0 -15 -4 -15 -9 0 -6 -11 -22 -25 -37 -14 -15 -25 -33 -25 -40 0
-8 -4 -14 -10 -14 -5 0 -10 -6 -10 -13 0 -21 -24 -67 -35 -67 -5 1 -18 7 -28
15 -18 13 -17 14 10 31 32 21 44 35 37 46 -5 7 -54 -11 -64 -23 -3 -4 -14 -8
-24 -10 -11 -2 -24 -17 -29 -34 -5 -16 -19 -43 -29 -58 -17 -23 -18 -33 -9
-59 16 -46 14 -55 -16 -62 -34 -9 -42 4 -35 60 3 27 0 50 -8 59 -22 26 -30 17
-30 -34 0 -32 -6 -55 -16 -66 -22 -22 -26 -16 -29 52 -1 43 -6 59 -18 61 -11
2 -17 -9 -22 -45 -3 -26 -13 -59 -20 -73 -15 -26 -15 -25 -18 45 -2 29 -7 41
-19 43 -13 3 -18 -3 -18 -21 0 -34 -10 -57 -24 -57 -18 0 -18 119 0 147 8 12
14 31 14 41 0 30 73 87 175 137 33 17 62 33 63 38 2 4 10 7 18 7 8 0 14 3 14
8 0 4 23 18 50 31 28 13 50 28 50 32 0 21 58 8 84 -18z m2396 18 c0 -6 -4 -13
-10 -16 -5 -3 -10 1 -10 9 0 9 5 16 10 16 6 0 10 -4 10 -9z m110 -7 c0 -14 -3
-14 -15 -4 -8 7 -15 14 -15 16 0 2 7 4 15 4 8 0 15 -7 15 -16z m457 -26 c-3
-8 -6 -5 -6 6 -1 11 2 17 5 13 3 -3 4 -12 1 -19z m130 16 c-3 -3 -12 -4 -19
-1 -8 3 -5 6 6 6 11 1 17 -2 13 -5z m-2907 -43 c0 -22 30 -52 30 -30 0 8 8 23
16 34 15 19 16 18 9 -20 -4 -22 -8 -47 -8 -55 0 -8 -4 -21 -10 -28 -8 -10 -15
-4 -28 30 -27 71 -31 88 -20 88 6 0 11 -8 11 -19z m2370 9 c0 -5 -4 -10 -10
-10 -5 0 -10 5 -10 10 0 6 5 10 10 10 6 0 10 -4 10 -10z m517 -7 c2 -6 -2 -17
-10 -24 -7 -8 -16 -22 -20 -31 -3 -10 -12 -18 -19 -17 -10 0 -10 2 0 6 6 2 12
11 12 18 0 8 7 21 17 30 14 14 14 18 2 27 -12 8 -12 9 0 6 8 -3 16 -9 18 -15z
m-2923 -47 c20 -43 20 -43 -4 -49 -15 -4 -20 0 -20 13 0 10 -4 20 -10 22 -11
3 -2 48 10 48 4 0 15 -15 24 -34z m2376 8 c0 -8 -4 -14 -10 -14 -5 0 -10 9
-10 21 0 11 5 17 10 14 6 -3 10 -13 10 -21z m117 -51 c-2 -16 -4 -5 -4 22 0
28 2 40 4 28 2 -13 2 -35 0 -50z m-160 -30 c-2 -16 -4 -3 -4 27 0 30 2 43 4
28 2 -16 2 -40 0 -55z m213 67 c0 -5 -4 -10 -10 -10 -5 0 -10 5 -10 10 0 6 5
10 10 10 6 0 10 -4 10 -10z m-140 -55 c-17 -20 -30 -9 -29 23 1 17 3 21 6 10
6 -25 23 -22 24 5 l2 22 4 -23 c3 -13 -1 -30 -7 -37z m217 23 c-3 -7 -5 -2 -5
12 0 14 2 19 5 13 2 -7 2 -19 0 -25z m50 7 c-4 -8 -13 -15 -22 -15 -13 0 -12
3 2 20 19 22 29 19 20 -5z m-113 -1 c20 -8 9 -34 -15 -34 -21 0 -22 1 -13 24
7 18 7 18 28 10z m-1019 -75 c-4 -5 -15 -14 -25 -19 -17 -9 -19 -8 -13 7 4 10
11 21 17 25 13 9 28 0 21 -13z m15 -49 c-6 -11 -15 -18 -20 -15 -10 6 -2 33
14 52 16 16 20 -11 6 -37z m777 -2 c-3 -8 -6 -5 -6 6 -1 11 2 17 5 13 3 -3 4
-12 1 -19z m-801 -43 c4 -14 4 -29 0 -32 -3 -4 -6 3 -6 15 0 12 -4 22 -10 22
-5 0 -10 5 -10 10 0 21 20 9 26 -15z m-80 -40 c-3 -8 -10 -15 -15 -15 -5 0 -4
11 2 25 12 25 23 16 13 -10z m48 -24 c-7 -42 -24 -57 -24 -21 0 21 21 72 27
66 2 -2 1 -22 -3 -45z m-1725 22 c3 -5 23 -17 44 -28 20 -11 37 -25 37 -32 0
-7 4 -13 10 -13 5 0 12 -16 16 -35 3 -19 10 -35 15 -35 5 0 9 -7 9 -15 0 -8 5
-24 12 -35 7 -10 9 -22 5 -26 -8 -8 -77 43 -77 57 0 5 -9 20 -20 31 -11 13
-18 29 -15 39 3 10 1 20 -5 24 -5 3 -10 -1 -10 -9 0 -9 -4 -16 -10 -16 -5 0
-10 5 -10 10 0 6 -8 13 -17 17 -43 15 -71 43 -66 64 5 18 11 20 41 15 20 -3
38 -9 41 -13z m-449 -50 c0 -5 -14 -16 -30 -25 -25 -14 -30 -15 -30 -3 0 8 9
15 19 15 11 0 23 5 26 10 7 12 15 13 15 3z m2170 -33 c0 -5 -4 -10 -10 -10 -5
0 -10 5 -10 10 0 6 5 10 10 10 6 0 10 -4 10 -10z m866 -114 c-2 -6 -5 -1 -5
11 -1 12 -5 25 -11 28 -12 7 -13 58 -2 69 8 9 25 -92 18 -108z m-1026 24 c-8
-5 -17 -7 -19 -4 -3 3 1 9 9 14 8 5 17 7 19 4 3 -3 -1 -9 -9 -14z m-2170 7 c0
-2 -16 -18 -35 -37 -42 -41 -47 -33 -5 10 26 27 40 36 40 27z m2234 -42 c-4
-8 -10 -13 -15 -10 -4 3 -6 12 -3 20 4 8 10 13 15 10 4 -3 6 -12 3 -20z m953
-105 c-2 -33 0 -60 4 -60 5 0 9 -10 8 -22 0 -13 -3 -17 -6 -10 -7 18 -21 15
-28 -8 -4 -11 -11 -18 -16 -15 -5 4 -5 13 0 23 4 9 11 43 14 74 5 55 12 78 23
78 3 0 3 -27 1 -60z m140 34 c-3 -3 -12 -4 -19 -1 -8 3 -5 6 6 6 11 1 17 -2
13 -5z m-7 -34 c0 -5 -4 -10 -10 -10 -5 0 -10 5 -10 10 0 6 5 10 10 10 6 0 10
-4 10 -10z m-70 -20 c0 -5 -5 -10 -11 -10 -5 0 -7 5 -4 10 3 6 8 10 11 10 2 0
4 -4 4 -10z m93 -29 c-4 -3 -11 -10 -15 -15 -5 -5 -8 0 -8 12 0 15 4 20 16 15
9 -3 12 -9 7 -12z m-108 -9 c-3 -3 -11 0 -18 7 -9 10 -8 11 6 5 10 -3 15 -9
12 -12z m-1508 -14 c-3 -8 -6 -5 -6 6 -1 11 2 17 5 13 3 -3 4 -12 1 -19z
m1547 -13 c-4 -8 -10 -15 -15 -15 -5 0 -9 -12 -9 -27 0 -14 -3 -24 -6 -20 -12
11 6 77 21 77 9 0 12 -6 9 -15z m96 -4 c0 -5 -6 -11 -12 -14 -10 -3 -10 -8 1
-21 12 -14 12 -16 -3 -10 -24 9 -20 54 6 54 4 0 8 -4 8 -9z m-2693 -17 c-3 -3
-12 -4 -19 -1 -8 3 -5 6 6 6 11 1 17 -2 13 -5z m88 -4 c-3 -5 -13 -10 -21 -10
-8 0 -14 5 -14 10 0 6 9 10 21 10 11 0 17 -4 14 -10z m1282 -12 c-3 -8 -6 -5
-6 6 -1 11 2 17 5 13 3 -3 4 -12 1 -19z m1158 2 c3 -5 1 -10 -4 -10 -6 0 -11
5 -11 10 0 6 2 10 4 10 3 0 8 -4 11 -10z m-2582 -30 c-13 -23 -15 -32 -5 -42
16 -16 15 -28 -3 -28 -11 0 -15 11 -15 43 0 46 5 57 27 57 11 0 10 -6 -4 -30z
m183 5 c-3 -8 -1 -15 4 -15 15 0 12 -26 -4 -39 -13 -11 -15 -6 -14 28 0 23 5
41 10 41 6 0 8 -7 4 -15z m2514 -16 c0 -6 -4 -7 -10 -4 -5 3 -10 11 -10 16 0
6 5 7 10 4 6 -3 10 -11 10 -16z m-2503 -63 c-2 -6 -12 -13 -23 -15 -10 -2 -21
-7 -24 -11 -6 -8 -90 -23 -90 -15 0 3 21 16 48 28 50 25 95 32 89 13z m1329
-41 c0 -25 -4 -45 -8 -45 -5 0 -8 6 -8 14 0 8 -7 16 -15 20 -8 3 -15 1 -15 -3
0 -5 6 -11 13 -14 9 -3 9 -7 0 -17 -14 -15 -36 -3 -29 16 3 7 1 16 -4 19 -6 4
-10 15 -10 25 0 17 7 21 66 29 7 0 11 -16 10 -44z m1334 -15 c0 -5 -4 -10 -10
-10 -5 0 -10 5 -10 10 0 6 5 10 10 10 6 0 10 -4 10 -10z m0 -46 c0 -8 -4 -14
-10 -14 -5 0 -10 9 -10 21 0 11 5 17 10 14 6 -3 10 -13 10 -21z"/>
<path d="M2860 3820 c0 -5 5 -10 10 -10 6 0 10 5 10 10 0 6 -4 10 -10 10 -5 0
-10 -4 -10 -10z"/>
<path d="M3220 3665 c7 -8 18 -15 25 -15 7 0 15 7 19 15 4 11 -2 15 -26 15
-26 0 -29 -2 -18 -15z"/>
<path d="M3220 3555 c0 -8 7 -15 15 -15 8 0 15 7 15 15 0 8 -7 15 -15 15 -8 0
-15 -7 -15 -15z"/>
<path d="M3070 3335 c0 -8 4 -15 10 -15 5 0 7 7 4 15 -4 8 -8 15 -10 15 -2 0
-4 -7 -4 -15z"/>
<path d="M2490 2915 c0 -8 5 -15 10 -15 6 0 10 7 10 15 0 8 -4 15 -10 15 -5 0
-10 -7 -10 -15z"/>
<path d="M3171 3124 c0 -11 3 -14 6 -6 3 7 2 16 -1 19 -3 4 -6 -2 -5 -13z"/>
<path d="M905 1240 c3 -5 10 -10 16 -10 5 0 9 5 9 10 0 6 -7 10 -16 10 -8 0
-12 -4 -9 -10z"/>
<path d="M2940 2670 c0 -5 5 -10 10 -10 6 0 10 5 10 10 0 6 -4 10 -10 10 -5 0
-10 -4 -10 -10z"/>
<path d="M2977 2505 c19 -25 33 -32 33 -15 0 6 -4 10 -10 10 -5 0 -10 7 -10
15 0 8 -7 15 -15 15 -14 0 -13 -3 2 -25z"/>
<path d="M2230 2730 c-8 -5 -11 -12 -7 -16 4 -4 13 -2 19 4 15 15 7 24 -12 12z"/>
<path d="M2590 2441 c0 -5 7 -11 15 -15 9 -3 15 0 15 9 0 8 -7 15 -15 15 -8 0
-15 -4 -15 -9z"/>
<path d="M2686 2331 c-4 -7 -5 -15 -2 -18 9 -9 19 4 14 18 -4 11 -6 11 -12 0z"/>
<path d="M3440 1856 c0 -9 5 -16 10 -16 6 0 10 4 10 9 0 6 -4 13 -10 16 -5 3
-10 -1 -10 -9z"/>
<path d="M3458 1824 c-16 -15 -8 -44 12 -44 11 0 20 5 20 10 0 6 -4 10 -9 10
-5 0 -11 7 -13 16 -2 9 -6 12 -10 8z"/>
<path d="M3345 1770 c-3 -5 -1 -10 4 -10 6 0 11 5 11 10 0 6 -2 10 -4 10 -3 0
-8 -4 -11 -10z"/>
<path d="M3820 1611 c0 -11 29 -35 35 -29 10 9 -7 38 -21 38 -8 0 -14 -4 -14
-9z"/>
<path d="M3565 1470 c-3 -5 -1 -10 4 -10 6 0 11 5 11 10 0 6 -2 10 -4 10 -3 0
-8 -4 -11 -10z"/>
<path d="M4014 1335 c4 -14 2 -25 -4 -25 -5 0 -10 -7 -10 -15 0 -8 5 -15 11
-15 5 0 8 4 4 9 -3 5 -1 12 5 16 14 8 13 55 -1 55 -7 0 -9 -10 -5 -25z"/>
<path d="M3700 1160 c0 -5 4 -10 9 -10 6 0 13 5 16 10 3 6 -1 10 -9 10 -9 0
-16 -4 -16 -10z"/>
<path d="M1812 1915 c0 -16 2 -22 5 -12 2 9 2 23 0 30 -3 6 -5 -1 -5 -18z"/>
<path d="M2656 1311 c-16 -18 -16 -18 9 -14 14 3 25 12 25 19 0 19 -14 17 -34
-5z"/>
<path d="M822 1101 c-10 -6 -10 -13 -1 -34 16 -35 29 -34 29 2 0 33 -10 44
-28 32z"/>
<path d="M770 575 c0 -8 2 -15 4 -15 2 0 11 -3 19 -6 12 -4 14 0 10 15 -6 24
-33 29 -33 6z"/>
<path d="M2466 3781 c-4 -7 -5 -15 -2 -18 9 -9 19 4 14 18 -4 11 -6 11 -12 0z"/>
<path d="M3310 3121 c0 -5 5 -13 10 -16 6 -3 10 -2 10 4 0 5 -4 13 -10 16 -5
3 -10 2 -10 -4z"/>
<path d="M3385 3059 c-4 -6 -5 -12 -2 -15 2 -3 7 2 10 11 7 17 1 20 -8 4z"/>
<path d="M3410 3046 c0 -16 58 -66 77 -66 7 0 13 -7 13 -15 0 -8 4 -15 9 -15
4 0 25 -16 45 -35 21 -19 39 -35 41 -35 1 0 5 11 7 25 4 20 -1 27 -27 39 -18
9 -38 23 -45 31 -7 8 -30 25 -51 37 -22 12 -39 25 -39 29 0 4 -7 9 -15 13 -9
3 -15 0 -15 -8z"/>
<path d="M3490 3051 c0 -15 148 -101 173 -101 9 0 17 -3 19 -7 5 -13 68 -43
88 -43 9 0 23 -7 30 -15 14 -17 40 -20 40 -5 0 6 -8 13 -17 16 -10 3 -46 19
-80 35 -35 16 -67 29 -72 29 -5 0 -11 3 -13 8 -4 9 -66 42 -80 42 -5 0 -16 6
-23 13 -44 39 -65 48 -65 28z"/>
<path d="M3409 2986 c16 -32 61 -75 61 -58 0 5 -11 22 -25 38 -14 16 -25 32
-25 35 0 4 -6 9 -13 12 -10 4 -10 -3 2 -27z"/>
<path d="M3480 2906 c0 -2 9 -6 20 -9 11 -3 20 -1 20 4 0 5 -9 9 -20 9 -11 0
-20 -2 -20 -4z"/>
<path d="M3616 2903 c-13 -13 -5 -30 20 -42 23 -10 26 -10 20 4 -3 9 -6 20 -6
25 0 10 -26 20 -34 13z"/>
<path d="M3682 2870 c-1 -42 12 -54 21 -20 3 11 10 20 16 20 15 0 14 -37 -1
-43 -8 -3 -6 -6 5 -6 9 -1 17 6 17 15 0 14 3 14 15 4 8 -7 15 -21 15 -31 0
-15 7 -19 35 -19 19 0 35 -5 35 -11 0 -5 9 -9 19 -7 10 2 28 -5 39 -15 20 -18
21 -18 32 3 15 27 1 39 -45 40 -16 0 -41 9 -55 20 -14 11 -28 20 -33 20 -4 0
-30 16 -57 35 -27 19 -52 35 -54 35 -2 0 -4 -18 -4 -40z"/>
<path d="M3985 2900 c3 -5 8 -10 11 -10 2 0 4 5 4 10 0 6 -5 10 -11 10 -5 0
-7 -4 -4 -10z"/>
<path d="M3900 2890 c0 -5 5 -10 10 -10 6 0 10 5 10 10 0 6 -4 10 -10 10 -5 0
-10 -4 -10 -10z"/>
<path d="M4010 2890 c0 -5 5 -10 10 -10 6 0 10 5 10 10 0 6 -4 10 -10 10 -5 0
-10 -4 -10 -10z"/>
<path d="M4075 2870 c3 -5 8 -10 11 -10 2 0 4 5 4 10 0 6 -5 10 -11 10 -5 0
-7 -4 -4 -10z"/>
<path d="M3310 2785 c7 -9 15 -13 17 -11 7 7 -7 26 -19 26 -6 0 -6 -6 2 -15z"/>
<path d="M3950 2770 c0 -23 22 -27 39 -7 13 16 5 27 -21 27 -11 0 -18 -7 -18
-20z"/>
<path d="M3600 2752 c0 -10 -5 -23 -12 -30 -9 -9 -7 -12 9 -12 12 0 25 -5 28
-10 9 -15 25 -2 25 19 0 17 -29 51 -43 51 -4 0 -7 -8 -7 -18z"/>
<path d="M4015 2759 c-4 -6 -4 -13 -1 -16 8 -8 36 5 36 17 0 13 -27 13 -35 -1z"/>
<path d="M4066 2755 c4 -8 17 -15 30 -15 17 0 22 4 18 15 -4 8 -17 15 -30 15
-17 0 -22 -4 -18 -15z"/>
<path d="M4156 2752 c-10 -9 5 -21 19 -15 8 3 15 0 15 -7 0 -8 11 -11 29 -8
17 2 28 1 25 -4 -3 -4 2 -8 10 -8 27 0 18 27 -11 35 -38 10 -81 14 -87 7z"/>
<path d="M3680 2716 c0 -13 7 -27 16 -30 25 -10 34 -7 28 9 -4 8 -1 15 5 15 6
0 11 4 11 10 0 5 -7 7 -15 4 -8 -4 -15 -1 -15 5 0 6 -7 11 -15 11 -9 0 -15 -9
-15 -24z"/>
<path d="M3935 2731 c3 -6 19 -16 35 -25 26 -12 30 -12 30 0 0 8 -7 14 -15 14
-8 0 -15 5 -15 10 0 6 -9 10 -21 10 -11 0 -18 -4 -14 -9z"/>
<path d="M4290 2724 c0 -10 57 -44 73 -44 3 0 8 8 10 18 4 13 5 11 6 -5 1 -28
21 -31 21 -4 0 23 -23 33 -56 25 -14 -4 -24 -2 -24 5 0 6 7 8 15 5 8 -4 15 -1
15 5 0 5 -13 9 -30 8 -16 -1 -30 -7 -30 -13z"/>
<path d="M3532 2706 c8 -7 25 -17 38 -21 14 -4 35 -17 47 -28 13 -11 26 -17
30 -14 7 8 11 5 -53 45 -53 34 -87 43 -62 18z"/>
<path d="M3411 2683 c0 -25 1 -26 9 -8 12 27 12 35 0 35 -5 0 -10 -12 -9 -27z"/>
<path d="M3773 2686 c0 -31 24 -42 32 -16 7 23 -1 40 -19 40 -8 0 -13 -11 -13
-24z"/>
<path d="M4425 2701 c-3 -5 -1 -12 5 -16 5 -3 10 1 10 9 0 18 -6 21 -15 7z"/>
<path d="M3460 2679 c0 -5 5 -7 10 -4 6 3 10 8 10 11 0 2 -4 4 -10 4 -5 0 -10
-5 -10 -11z"/>
<path d="M3840 2681 c0 -5 3 -11 8 -14 4 -2 2 -2 -5 -1 -19 5 -26 -15 -8 -23
10 -3 21 0 26 8 13 21 11 39 -6 39 -8 0 -15 -4 -15 -9z"/>
<path d="M4450 2673 c0 -4 5 -15 10 -23 7 -11 12 -12 21 -3 8 8 6 14 -10 22
-12 7 -21 8 -21 4z"/>
<path d="M4520 2671 c0 -6 5 -11 10 -11 6 0 10 -9 10 -19 0 -18 56 -68 65 -59
8 8 -30 76 -45 82 -8 3 -21 9 -27 12 -7 3 -13 1 -13 -5z"/>
<path d="M3931 2639 c24 -23 34 -28 40 -18 6 11 9 10 15 -4 7 -19 49 -23 59
-6 11 17 -5 24 -26 11 -18 -12 -19 -10 -13 15 3 16 2 23 -3 17 -4 -6 -18 -14
-29 -18 -16 -5 -23 -2 -27 14 -3 12 -13 20 -26 20 -20 0 -19 -3 10 -31z"/>
<path d="M3896 2626 c3 -9 11 -16 16 -16 13 0 5 23 -10 28 -7 2 -10 -2 -6 -12z"/>
<path d="M4107 2603 c-4 -3 -7 -15 -7 -26 0 -25 13 -14 15 13 2 22 1 23 -8 13z"/>
<path d="M4730 2540 c0 -5 5 -10 10 -10 6 0 10 5 10 10 0 6 -4 10 -10 10 -5 0
-10 -4 -10 -10z"/>
<path d="M2986 2181 c-4 -7 -5 -15 -2 -18 9 -9 19 4 14 18 -4 11 -6 11 -12 0z"/>
<path d="M1338 2107 c-15 -6 -30 -17 -33 -25 -9 -24 2 -25 24 -3 33 33 74 26
84 -14 4 -16 5 -15 6 6 2 45 -26 58 -81 36z"/>
<path d="M1300 2035 c0 -8 7 -15 16 -15 14 0 14 3 4 15 -7 8 -14 15 -16 15 -2
0 -4 -7 -4 -15z"/>
<path d="M1390 2030 c0 -5 7 -10 15 -10 8 0 15 5 15 10 0 6 -7 10 -15 10 -8 0
-15 -4 -15 -10z"/>
<path d="M3070 1975 c0 -8 5 -15 10 -15 6 0 10 7 10 15 0 8 -4 15 -10 15 -5 0
-10 -7 -10 -15z"/>
<path d="M3091 1934 c0 -11 3 -14 6 -6 3 7 2 16 -1 19 -3 4 -6 -2 -5 -13z"/>
<path d="M3100 1875 c0 -8 5 -15 10 -15 6 0 10 7 10 15 0 8 -4 15 -10 15 -5 0
-10 -7 -10 -15z"/>
<path d="M3130 1820 c0 -5 5 -10 10 -10 6 0 10 5 10 10 0 6 -4 10 -10 10 -5 0
-10 -4 -10 -10z"/>
<path d="M1952 1797 c-17 -12 -32 -28 -32 -34 0 -7 -5 -13 -10 -13 -13 0 -70
-57 -70 -70 0 -6 7 -10 15 -10 14 0 19 12 16 33 0 4 2 7 7 7 4 0 20 11 36 25
15 13 41 30 57 37 28 13 38 32 21 42 -5 3 -23 -5 -40 -17z"/>
<path d="M113 1763 c-60 -8 -36 -43 29 -43 24 0 29 4 26 22 -3 24 -9 26 -55
21z"/>
<path d="M1878 1593 c7 -3 16 -2 19 1 4 3 -2 6 -13 5 -11 0 -14 -3 -6 -6z"/>
<path d="M2050 1555 c0 -8 7 -15 15 -15 8 0 15 4 15 9 0 5 -7 11 -15 15 -9 3
-15 0 -15 -9z"/>
<path d="M1940 1552 c0 -4 -14 -13 -30 -19 -23 -9 -28 -15 -23 -30 12 -34 49
-46 40 -14 -3 14 -1 18 9 14 10 -4 14 4 14 26 0 17 -2 31 -5 31 -3 0 -5 -4 -5
-8z"/>
<path d="M665 1400 c-3 -5 -15 -10 -25 -10 -21 0 -72 -49 -64 -62 3 -4 13 -8
22 -8 15 0 15 2 2 10 -13 8 -12 12 6 29 12 11 34 20 50 22 74 6 81 -7 32 -53
-31 -29 -31 -30 -8 -26 15 2 30 14 38 31 7 15 17 27 23 27 21 0 7 19 -25 34
-40 19 -43 19 -51 6z"/>
<path d="M1970 1366 c0 -9 6 -16 14 -16 8 0 16 -4 18 -9 2 -4 14 -12 28 -16
26 -8 26 -7 -47 48 -9 7 -13 5 -13 -7z"/>
<path d="M1957 1333 c-17 -16 -4 -43 29 -62 41 -25 64 -27 64 -6 0 9 -9 15
-24 15 -14 0 -28 5 -32 12 -4 7 -3 8 4 4 7 -4 12 -1 12 9 0 9 -4 13 -10 10 -5
-3 -10 -2 -10 4 0 6 -7 7 -17 4 -11 -4 -14 -3 -9 5 8 13 3 16 -7 5z"/>
<path d="M2750 1209 c0 -5 5 -7 10 -4 6 3 10 8 10 11 0 2 -4 4 -10 4 -5 0 -10
-5 -10 -11z"/>
<path d="M1843 1050 c3 -13 0 -20 -10 -20 -8 0 -11 -4 -8 -10 3 -5 15 -10 26
-10 12 0 19 -5 16 -12 -2 -7 -11 -12 -20 -10 -8 1 -18 -2 -22 -8 -5 -8 -11 -8
-20 0 -8 7 -15 7 -19 1 -10 -15 92 -111 117 -111 13 0 28 -5 34 -11 7 -7 13
-8 17 0 12 18 -29 49 -58 44 -20 -4 -26 -1 -26 12 0 11 -5 15 -15 11 -19 -7
-19 13 -1 37 15 20 40 24 71 12 11 -5 2 9 -22 33 -24 23 -43 46 -43 52 0 5 -5
10 -11 10 -6 0 -9 -9 -6 -20z"/>
<path d="M2670 1045 c0 -8 4 -15 9 -15 5 0 11 7 15 15 3 9 0 15 -9 15 -8 0
-15 -7 -15 -15z"/>
<path d="M2810 1022 c0 -6 -15 -15 -32 -22 -33 -12 -33 -12 -10 -21 13 -5 26
-18 29 -29 3 -11 12 -20 19 -20 8 0 14 -5 14 -10 0 -6 10 -8 24 -4 13 3 27 1
30 -5 4 -6 16 -11 27 -11 10 0 19 -4 19 -10 0 -5 16 -12 35 -16 19 -3 38 -10
41 -15 11 -18 44 -9 44 11 0 18 -5 20 -40 16 -22 -3 -40 -1 -40 5 0 5 -7 9
-15 9 -9 0 -18 6 -21 14 -3 7 -23 19 -45 26 -30 10 -38 17 -34 31 5 14 1 16
-15 12 -11 -3 -20 0 -20 6 0 6 7 11 16 11 9 0 14 6 12 13 -6 15 -38 23 -38 9z"/>
<path d="M1555 959 c-20 -11 -65 -72 -65 -89 0 -5 7 -7 15 -4 8 4 15 10 15 16
0 5 13 23 30 41 16 18 30 35 30 40 0 8 1 8 -25 -4z"/>
<path d="M1950 949 c0 -5 5 -7 10 -4 6 3 10 8 10 11 0 2 -4 4 -10 4 -5 0 -10
-5 -10 -11z"/>
<path d="M1593 923 c-7 -3 -13 -9 -13 -15 0 -5 -9 -21 -20 -35 -24 -31 -25
-43 -5 -43 8 0 15 4 15 9 0 5 6 16 13 23 35 39 41 72 10 61z"/>
<path d="M2518 923 c7 -3 16 -2 19 1 4 3 -2 6 -13 5 -11 0 -14 -3 -6 -6z"/>
<path d="M1641 877 c-24 -29 -40 -84 -29 -95 9 -9 16 -1 29 28 21 47 39 52 39
10 0 -16 -4 -30 -10 -30 -5 0 -10 -9 -10 -20 0 -45 38 -10 47 43 4 30 1 37
-25 55 -24 18 -32 19 -41 9z"/>
<path d="M3674 819 c-3 -6 -2 -15 4 -21 7 -7 14 -3 21 11 10 17 9 21 -3 21 -8
0 -18 -5 -22 -11z"/>
<path d="M1804 792 c-18 -13 -38 -72 -27 -83 14 -14 29 8 37 54 7 39 7 41 -10
29z"/>
<path d="M1730 771 c-11 -22 -13 -51 -4 -51 12 0 33 34 34 53 0 23 -17 22 -30
-2z"/>
<path d="M3150 760 c0 -19 3 -21 12 -12 9 9 9 15 0 24 -9 9 -12 7 -12 -12z"/>
<path d="M2595 595 c-19 -42 -17 -68 9 -73 14 -3 17 0 11 17 -3 12 0 34 8 50
14 28 13 41 -4 41 -3 0 -14 -16 -24 -35z"/>
<path d="M3122 585 c0 -16 2 -22 5 -12 2 9 2 23 0 30 -3 6 -5 -1 -5 -18z"/>
<path d="M2647 593 c-14 -13 -7 -91 8 -97 12 -4 15 5 15 49 0 51 -7 65 -23 48z"/>
<path d="M2726 564 c-11 -27 -6 -62 8 -67 20 -8 22 -3 18 42 -4 42 -15 53 -26
25z"/>
<path d="M2780 551 c0 -28 24 -60 33 -44 3 4 2 23 0 41 -7 41 -33 44 -33 3z"/>
<path d="M2843 573 c-16 -6 -16 -31 0 -60 12 -22 14 -22 37 -6 22 15 22 17 4
23 -10 4 -21 16 -24 27 -3 11 -11 18 -17 16z"/>
<path d="M2923 565 c-18 -20 -17 -46 2 -39 8 4 15 12 15 20 0 8 5 14 10 14 6
0 10 5 10 10 0 15 -23 12 -37 -5z"/>
<path d="M990 552 c0 -24 28 -61 54 -70 24 -9 34 -9 53 3 31 21 30 53 -3 65
-31 12 -104 13 -104 2z m67 -14 c37 -13 45 -38 12 -38 -29 0 -59 18 -59 35 0
18 4 18 47 3z"/>
<path d="M2721 454 c0 -11 3 -14 6 -6 3 7 2 16 -1 19 -3 4 -6 -2 -5 -13z"/>
<path d="M2500 410 c0 -5 5 -10 10 -10 6 0 10 5 10 10 0 6 -4 10 -10 10 -5 0
-10 -4 -10 -10z"/>
<path d="M2721 404 c0 -11 3 -14 6 -6 3 7 2 16 -1 19 -3 4 -6 -2 -5 -13z"/>
<path d="M2548 388 c-7 -16 18 -35 30 -23 3 3 0 5 -6 5 -6 0 -12 8 -14 18 -3
15 -4 16 -10 0z"/>
<path d="M2655 380 c-3 -5 -1 -10 4 -10 6 0 11 5 11 10 0 6 -2 10 -4 10 -3 0
-8 -4 -11 -10z"/>
<path d="M2500 360 c0 -5 5 -10 10 -10 6 0 10 -5 10 -11 0 -5 -4 -7 -10 -4 -6
3 -7 -1 -4 -9 10 -26 24 -18 24 14 0 20 -5 30 -15 30 -8 0 -15 -4 -15 -10z"/>
<path d="M2650 310 c-25 -22 -48 -40 -53 -40 -4 0 -34 -26 -66 -57 -79 -77
-157 -143 -170 -143 -6 0 -11 -4 -11 -10 0 -5 -5 -10 -11 -10 -6 0 -9 7 -5 15
7 20 -8 19 -25 -1 -10 -13 -10 -17 2 -25 12 -8 12 -10 -1 -19 -10 -7 31 -10
128 -10 127 0 143 2 149 18 4 9 9 19 12 22 17 15 71 103 71 115 0 8 4 15 10
15 5 0 12 17 16 38 4 20 18 46 31 58 33 28 28 68 -7 72 -17 2 -39 -10 -70 -38z
m-70 -150 c0 -5 -4 -10 -10 -10 -5 0 -10 5 -10 10 0 6 5 10 10 10 6 0 10 -4
10 -10z m-96 -125 c-6 -16 -24 -21 -24 -7 0 11 11 22 21 22 5 0 6 -7 3 -15z"/>
<path d="M3061 335 c-2 -16 -90 -105 -104 -105 -16 0 -47 -36 -47 -55 0 -8 -5
-15 -11 -15 -7 0 -10 -12 -7 -30 3 -18 0 -30 -6 -29 -24 3 -36 -2 -36 -12 0
-7 -16 -27 -35 -45 -25 -25 -29 -34 -17 -34 44 0 61 12 64 44 2 17 8 31 13 32
32 3 46 17 40 44 -6 29 7 41 49 45 10 2 23 10 28 19 5 8 22 30 39 48 31 34 45
68 36 90 -3 7 -6 9 -6 3z"/>
<path d="M2486 279 c-16 -16 -17 -19 -4 -19 9 0 19 7 22 16 9 24 4 24 -18 3z"/>
<path d="M2935 159 c-9 -14 -2 -20 14 -10 8 6 9 11 3 15 -6 3 -14 1 -17 -5z"/>
<path d="M0 37 c0 -13 19 -15 165 -20 l139 -5 -34 19 c-29 15 -55 18 -152 16
-65 -1 -118 -5 -118 -10z"/>
</g>
</svg>
